<svg width="65" height="65" viewBox="0 0 65 65" fill="none" xmlns="http://www.w3.org/2000/svg">
<path d="M22.3351 2.36285C22.9632 2.36289 23.5755 2.55999 24.0857 2.92641C24.5959 3.29282 24.9782 3.81007 25.1789 4.40527L43.4144 58.4345C43.5671 58.8861 43.6099 59.3677 43.5394 59.8392C43.4688 60.3107 43.287 60.7586 43.0089 61.1459C42.7308 61.5331 42.3644 61.8486 41.9402 62.066C41.5159 62.2835 41.0459 62.3968 40.5692 62.3964H61.5824C62.0589 62.3958 62.5283 62.282 62.9521 62.0644C63.3759 61.8468 63.7419 61.5315 64.0199 61.1447C64.298 60.7574 64.4799 60.3094 64.5503 59.8378C64.6208 59.3662 64.5779 58.8846 64.4252 58.433L46.1911 4.40375C45.9904 3.80838 45.6079 3.29101 45.0976 2.92459C44.5872 2.55816 43.9747 2.36115 43.3464 2.36133L22.3351 2.36285ZM21.6567 2.60559C21.0274 2.60557 20.4141 2.803 19.903 3.17006C19.3919 3.53711 19.0088 4.05529 18.8079 4.65156L0.57484 58.6777C0.422453 59.1292 0.379763 59.6105 0.450302 60.0818C0.520841 60.553 0.702581 61.0007 0.980486 61.3878C1.25839 61.7749 1.62447 62.0902 2.04844 62.3077C2.47241 62.5252 2.94208 62.6387 3.41859 62.6387H18.0908C18.72 62.6387 19.3329 62.4305 19.8438 62.0735C20.3548 61.7066 20.738 61.1887 20.9391 60.5927L24.5035 50.0759L17.6932 43.5469C17.5683 43.4083 17.0061 42.3922 17.5058 41.5147C18.0685 40.6722 19.0064 40.6722 19.0064 40.6722H27.784L32.3918 27.3955L24.5141 4.22551C24.4928 4.12141 24.05 3.53234 23.3558 3.0677C22.6601 2.60305 21.6572 2.60609 21.6572 2.60609L21.6567 2.60559ZM19.1786 41.0673C18.9006 41.0669 18.6289 41.1502 18.399 41.3065C18.169 41.4627 17.9915 41.6846 17.8896 41.9432C17.7876 42.2019 17.7659 42.4852 17.8274 42.7563C17.8888 43.0274 18.0305 43.2738 18.234 43.4632L37.4446 61.394C38.0037 61.9171 38.7151 62.2223 39.4794 62.2223C39.4794 62.2223 40.1304 62.2568 40.5229 62.2055C41.4456 62.0669 42.313 61.3077 42.5999 60.9918C43.3398 60.0072 43.0031 58.4781 43.0031 58.4781L37.1886 41.0703L19.1786 41.0673Z" fill="#606060"/>
</svg>
