<svg width="75" height="75" viewBox="0 0 75 75" fill="none" xmlns="http://www.w3.org/2000/svg">
<path d="M68.8477 19.6289L69.0234 19.5117C68.6719 18.8672 68.1445 18.2812 67.6172 17.9883L39.3164 1.69922C38.8477 1.40625 38.2031 1.28906 37.5 1.28906C36.7969 1.28906 36.1523 1.46484 35.6836 1.69922L7.55859 18.0469C6.5625 18.6328 5.85938 20.0977 5.85938 21.2109V53.8477C5.85938 54.4922 5.97656 55.1953 6.38672 55.8398L6.26953 55.8984C6.5625 56.3672 6.97266 56.7773 7.38281 57.0117L35.625 73.3594C36.0937 73.6523 36.7383 73.7695 37.4414 73.7695C38.1445 73.7695 38.7891 73.5938 39.2578 73.3594L67.3828 57.0117C68.3789 56.4258 69.082 54.9609 69.082 53.8477V21.1523C69.1406 20.6836 69.082 20.1562 68.8477 19.6289ZM37.5 60.6445C24.7266 60.6445 14.3555 50.2734 14.3555 37.5C14.3555 24.7266 24.7266 14.3555 37.5 14.3555C46.1133 14.3555 53.6133 19.1016 57.5977 26.0742L49.9805 30.4687C47.5195 26.0742 42.832 23.1445 37.5 23.1445C29.5898 23.1445 23.1445 29.5898 23.1445 37.5C23.1445 45.4102 29.5898 51.8555 37.5 51.8555C42.832 51.8555 47.5195 48.9258 49.9805 44.5898L57.5391 49.043C53.5547 55.957 46.0547 60.6445 37.5 60.6445ZM67.3828 36.3281H65.5078L64.9805 38.6719H67.3828V41.6016H64.4531L63.75 45.1172H60.8789L61.582 41.6016H59.3555L58.6523 45.1172H55.8398L56.543 41.6016H55.0781V38.6719H57.1289L57.6563 36.3281H55.0781V33.3984H58.1836L58.8867 29.8828H61.7578L61.0547 33.3984H63.2812L63.9844 29.8828H66.7969L66.0938 33.3984H67.3828V36.3281ZM59.9414 38.6719H62.168L62.6953 36.3281H60.4687L59.9414 38.6719Z" fill="#606060"/>
</svg>
