<svg width="81" height="81" viewBox="0 0 81 81" fill="none" xmlns="http://www.w3.org/2000/svg">
<g clip-path="url(#clip0_204_695)">
<path d="M16.2684 58.2972C13.9624 58.2972 11.8665 56.4139 11.8665 54.1181C11.8665 51.8222 13.7498 49.9263 16.2684 49.9263C18.7996 49.9263 20.7006 51.8121 20.7006 54.1181C20.7006 56.4139 18.5921 58.2972 16.2836 58.2972H16.2684ZM70.308 35.478C69.8448 32.1291 67.7768 29.4004 65.0456 27.3172L63.9799 26.4743L63.1218 27.5146C61.4613 29.4004 60.7905 32.7493 60.9981 35.2527C61.1981 37.1537 61.8005 39.0369 62.8712 40.5C62.0005 40.948 60.9475 41.3429 60.1274 41.7782C58.2036 42.4085 56.3305 42.6212 54.4599 42.6212H0.3291L0.116475 43.8589C-0.291571 47.942 0.363287 52.0613 2.01744 55.8166L2.84769 57.2821V57.4771C7.91019 65.8631 16.9139 69.6347 26.7351 69.6347C45.6157 69.6347 61.0918 61.4739 68.4324 43.8741C73.2443 44.0842 78.0992 42.8312 80.3774 38.2168L80.9849 37.1764L79.9825 36.5411C77.2411 34.8679 73.4949 34.6452 70.3612 35.4881L70.2929 35.5007L70.308 35.478ZM43.2819 32.1291H35.0832V40.3H43.2819V32.1291ZM43.2819 21.8598H35.0832V30.0307H43.2819V21.8598ZM43.2819 11.3779H35.0832V19.5513H43.2819V11.3779ZM53.3006 32.1291H45.1525V40.3H53.3259V32.1291H53.3006ZM22.9408 32.1291H14.7927V40.3H22.9661V32.1291H22.9408ZM33.1569 32.1291H25.0645V40.3H33.2126V32.1291H33.1569ZM12.8158 32.1291H4.71829V40.3H12.9195V32.1291H12.8158ZM33.1569 21.8598H25.0645V30.0307H33.2126V21.87L33.1569 21.8598ZM22.8851 21.8598H14.8053V30.0307H22.9534V21.87L22.9003 21.8598H22.8851Z" fill="#606060"/>
</g>
<defs>
<clipPath id="clip0_204_695">
<rect width="81" height="81" fill="white"/>
</clipPath>
</defs>
</svg>
