<svg width="75" height="75" viewBox="0 0 75 75" fill="none" xmlns="http://www.w3.org/2000/svg">
<g clip-path="url(#clip0_204_669)">
<path d="M57.4219 0H17.5781C7.86999 0 0 7.86999 0 17.5781V57.4219C0 67.13 7.86999 75 17.5781 75H57.4219C67.13 75 75 67.13 75 57.4219V17.5781C75 7.86999 67.13 0 57.4219 0Z" fill="#606060"/>
<path d="M11.8652 33.1741C11.748 33.1741 11.7188 33.1155 11.7773 33.0276L12.3926 32.2366C12.4512 32.1487 12.5977 32.0901 12.7148 32.0901H23.1738C23.291 32.0901 23.3203 32.178 23.2617 32.2659L22.7637 33.0276C22.7051 33.1155 22.5586 33.2034 22.4707 33.2034L11.8652 33.1741ZM7.44141 35.8694C7.32422 35.8694 7.29492 35.8108 7.35352 35.7229L7.96875 34.9319C8.02734 34.844 8.17383 34.7854 8.29102 34.7854H21.6504C21.7676 34.7854 21.8262 34.8733 21.7969 34.9612L21.5625 35.6644C21.5332 35.7815 21.416 35.8401 21.2988 35.8401L7.44141 35.8694ZM14.5312 38.5647C14.4141 38.5647 14.3848 38.4769 14.4434 38.389L14.8535 37.6565C14.9121 37.5686 15.0293 37.4808 15.1465 37.4808H21.0059C21.123 37.4808 21.1816 37.5687 21.1816 37.6858L21.123 38.389C21.123 38.5061 21.0059 38.594 20.918 38.594L14.5312 38.5647ZM44.9414 32.6468C43.0957 33.1155 41.8359 33.4671 40.0195 33.9358C39.5801 34.053 39.5508 34.0823 39.1699 33.6429C38.7305 33.1448 38.4082 32.8226 37.793 32.5296C35.9473 31.6214 34.1602 31.8851 32.4902 32.969C30.498 34.2581 29.4727 36.1624 29.502 38.5354C29.5312 40.8792 31.1426 42.8128 33.457 43.1351C35.4492 43.3987 37.1191 42.6956 38.4375 41.2015C38.7012 40.8792 38.9355 40.5276 39.2285 40.1175H33.5742C32.959 40.1175 32.8125 39.7366 33.0176 39.2386C33.3984 38.3304 34.1016 36.8069 34.5117 36.0452C34.5996 35.8694 34.8047 35.5765 35.2441 35.5765H45.9082C45.8496 36.3675 45.8496 37.1585 45.7324 37.9495C45.4102 40.0589 44.6191 41.9925 43.3301 43.6917C41.2207 46.4749 38.4668 48.2034 34.9805 48.6722C32.1094 49.053 29.4434 48.4964 27.0996 46.7386C24.9316 45.0979 23.7012 42.93 23.3789 40.2347C22.998 37.0413 23.9355 34.1702 25.8691 31.6507C27.9492 28.9261 30.7031 27.1976 34.0723 26.5823C36.8262 26.0843 39.4629 26.4065 41.8359 28.0179C43.3887 29.0433 44.502 30.4495 45.2344 32.1487C45.4102 32.4124 45.293 32.5589 44.9414 32.6468Z" fill="white"/>
<path d="M54.6386 48.8477C51.9726 48.7891 49.541 48.0273 47.4902 46.2695C45.7617 44.7754 44.6777 42.8711 44.3261 40.6152C43.7988 37.3047 44.707 34.375 46.6992 31.7676C48.8378 28.9551 51.416 27.4902 54.9023 26.875C57.8906 26.3477 60.7031 26.6406 63.2519 28.3691C65.5664 29.9512 67.0019 32.0898 67.3828 34.9023C67.8808 38.8574 66.7382 42.0801 64.0136 44.834C62.08 46.7969 59.707 48.0273 56.9824 48.584C56.1914 48.7305 55.4004 48.7598 54.6386 48.8477ZM61.6113 37.0117C61.582 36.6309 61.582 36.3379 61.5234 36.0449C60.9961 33.1445 58.33 31.5039 55.5468 32.1484C52.8222 32.7637 51.0644 34.4922 50.4199 37.2461C49.8925 39.5313 51.0058 41.8457 53.1152 42.7832C54.7265 43.4863 56.3379 43.3984 57.8906 42.6074C60.205 41.4063 61.4648 39.5313 61.6113 37.0117Z" fill="white"/>
</g>
<defs>
<clipPath id="clip0_204_669">
<rect width="75" height="75" fill="white"/>
</clipPath>
</defs>
</svg>
