<svg width="72" height="72" viewBox="0 0 72 72" fill="none" xmlns="http://www.w3.org/2000/svg">
<g clip-path="url(#clip0_204_689)">
<path d="M55.125 0H16.875C7.55519 0 0 7.55519 0 16.875V55.125C0 64.4448 7.55519 72 16.875 72H55.125C64.4448 72 72 64.4448 72 55.125V16.875C72 7.55519 64.4448 0 55.125 0Z" fill="#606060"/>
<path d="M48.1424 30.26C45.1788 17.1872 39.0026 13.707 37.427 11.2469C36.777 10.1633 36.2014 9.03676 35.7044 7.875C35.6211 9.03656 35.4681 9.76781 34.4809 10.6487C32.499 12.4158 24.0811 19.2755 23.3727 34.1291C22.7126 47.9784 33.5539 56.518 34.9861 57.4009C36.0874 57.9428 37.4287 57.4124 38.0832 56.9149C43.3091 53.3284 50.4495 43.7664 48.148 30.26" fill="white"/>
<path d="M36.1532 50.0264C35.8804 53.4542 35.6849 55.4461 34.9919 57.405C34.9919 57.405 35.4467 60.6683 35.7662 64.1251H36.8966C37.1665 61.6909 37.5782 59.2744 38.1296 56.888C36.6662 56.168 36.2095 53.0343 36.1532 50.0264Z" fill="#B8C4C2"/>
<path d="M38.1277 56.8896C36.6489 56.2065 36.2211 53.0067 36.1553 50.026C36.5208 45.1089 36.6275 40.176 36.4748 35.2477C36.3972 32.6619 36.5114 11.297 35.8378 8.16895C36.2983 9.22853 36.8293 10.2561 37.4271 11.2447C39.0027 13.7068 45.1809 17.1869 48.1425 30.2597C50.4496 43.7431 43.348 53.2798 38.1277 56.8896Z" fill="white"/>
</g>
<defs>
<clipPath id="clip0_204_689">
<rect width="72" height="72" fill="white"/>
</clipPath>
</defs>
</svg>
