<svg width="75" height="75" viewBox="0 0 75 75" fill="none" xmlns="http://www.w3.org/2000/svg">
<g clip-path="url(#clip0_204_674)">
<mask id="mask0_204_674" style="mask-type:luminance" maskUnits="userSpaceOnUse" x="0" y="0" width="75" height="75">
<path d="M0 0H75V75H0V0Z" fill="white"/>
</mask>
<g mask="url(#mask0_204_674)">
<path d="M37.2312 0C18.1875 0 19.375 8.3 19.375 8.3L19.3969 16.9H37.5656V19.4813H12.1875C12.1875 19.4813 0 18.0906 0 37.4031C0 56.7156 10.6344 56.0281 10.6344 56.0281H16.9781V47.0688C16.9781 47.0688 16.6375 36.3813 27.4469 36.3813H45.4656C45.4656 36.3813 55.5906 36.5438 55.5906 26.5438V10.0062C55.5906 10.0062 57.1281 0 37.2312 0ZM27.2125 5.78125C29.0188 5.78125 30.4812 7.25 30.4812 9.06875C30.4812 10.8844 29.0188 12.3531 27.2125 12.3531C25.4063 12.3531 23.9438 10.8844 23.9438 9.06875C23.9438 7.25 25.4031 5.78125 27.2125 5.78125Z" fill="#606060"/>
<path d="M37.7719 74.9999C56.8094 74.9999 55.6219 66.6999 55.6219 66.6999L55.6001 58.0999H37.4313V55.5187H62.8157C62.8157 55.5187 75.0032 56.9093 75.0032 37.5968C75.0032 18.2843 64.3657 18.9718 64.3657 18.9718H58.0219V27.9312C58.0219 27.9312 58.3626 38.6187 47.5532 38.6187H29.5376C29.5376 38.6187 19.4126 38.4562 19.4126 48.4562V64.9937C19.4126 64.9937 17.8751 74.9999 37.7719 74.9999ZM47.7907 69.2187C45.9813 69.2187 44.5219 67.7499 44.5219 65.9312C44.5219 64.1155 45.9813 62.6468 47.7907 62.6468C49.5969 62.6468 51.0594 64.1155 51.0594 65.9312C51.0594 67.7499 49.5969 69.2187 47.7907 69.2187Z" fill="#606060"/>
</g>
</g>
<defs>
<clipPath id="clip0_204_674">
<rect width="75" height="75" fill="white"/>
</clipPath>
</defs>
</svg>
