<svg width="80" height="80" viewBox="0 0 80 80" fill="none" xmlns="http://www.w3.org/2000/svg">
<path d="M37.01 34.7932C35.9904 35.3819 35.1683 36.2598 34.6475 37.3158C34.1268 38.3718 33.9309 39.5584 34.0846 40.7257C34.2382 41.8931 34.7346 42.9886 35.5108 43.8739C36.2871 44.7591 37.3084 45.3943 38.4457 45.6991C39.5829 46.0039 40.785 45.9647 41.9 45.5863C43.0149 45.208 43.9927 44.5076 44.7095 43.5736C45.4264 42.6396 45.8503 41.514 45.9275 40.3392C46.0047 39.1643 45.7318 37.993 45.1433 36.9732C44.7525 36.2959 44.2321 35.7023 43.6118 35.2262C42.9915 34.7501 42.2835 34.4008 41.5283 34.1984C40.773 33.9959 39.9852 33.9443 39.21 34.0463C38.4347 34.1484 37.6872 34.4022 37.01 34.7932ZM63.6933 41.2532C63.3022 40.8065 62.89 40.3587 62.4567 39.9098C62.7589 39.5898 63.0522 39.271 63.3367 38.9532C68.6867 32.9398 70.9467 26.9065 68.8533 23.2832C66.8467 19.8065 60.8767 18.7698 53.4 20.2232C52.6645 20.3676 51.9322 20.5298 51.2033 20.7098C51.0633 20.2298 50.9156 19.7521 50.76 19.2765C48.2233 11.6332 44.1267 6.66317 39.94 6.66651C35.9267 6.66651 32.0467 11.3232 29.57 18.5265C29.3256 19.2376 29.1 19.9532 28.8933 20.6732C28.4067 20.5532 27.9178 20.4421 27.4267 20.3398C19.54 18.7232 13.19 19.7898 11.1 23.4198C9.09668 26.8965 11.19 32.5865 16.1933 38.3265C16.6911 38.8932 17.2022 39.4487 17.7267 39.9932C17.1067 40.6287 16.5233 41.2632 15.9767 41.8965C11.0933 47.5565 9.12001 53.1498 11.12 56.6132C13.1867 60.1932 19.4467 61.3632 27.07 59.8632C27.6878 59.741 28.3022 59.6032 28.9133 59.4498C29.1356 60.2298 29.3811 61.0043 29.65 61.7732C32.1167 68.8298 35.9733 73.3332 39.9733 73.3332C44.1067 73.3332 48.2467 68.4898 50.7567 61.1365C50.9545 60.5543 51.1422 59.9532 51.32 59.3332C52.1089 59.5287 52.9033 59.7021 53.7033 59.8532C61.0467 61.2432 66.8767 60.1532 68.8733 56.6865C70.9367 53.1032 68.8067 47.0965 63.6933 41.2532ZM13.5667 24.8398C14.8533 22.6065 20.0433 21.7332 26.8533 23.1332C27.2889 23.2221 27.7322 23.3221 28.1833 23.4332C27.518 26.3744 27.0481 29.3565 26.7767 32.3598C24.3215 34.0876 21.98 35.9715 19.7667 37.9998C19.28 37.4954 18.8056 36.9787 18.3433 36.4498C14.0533 31.5365 12.36 26.9365 13.5667 24.8398ZM26.5233 43.9332C24.8233 42.6432 23.24 41.3232 21.8033 39.9965C23.2367 38.6765 24.82 37.3632 26.52 36.0765C26.4578 37.3854 26.4278 38.6954 26.43 40.0065C26.43 41.3176 26.4611 42.6265 26.5233 43.9332ZM26.5233 57.0665C23.6344 57.7128 20.6509 57.819 17.7233 57.3798C16.9209 57.3163 16.14 57.0892 15.4285 56.7126C14.7171 56.336 14.0903 55.8178 13.5867 55.1898C12.37 53.0898 13.9567 48.5965 18.1333 43.7565C18.6578 43.1498 19.2 42.5587 19.76 41.9832C21.9737 44.0248 24.3199 45.9178 26.7833 47.6498C27.059 50.6909 27.5333 53.7107 28.2033 56.6898C27.6478 56.8298 27.0867 56.9565 26.52 57.0698M50.1867 30.2732C49.0689 29.5687 47.9378 28.8876 46.7933 28.2298C45.6645 27.581 44.5233 26.9554 43.37 26.3532C45.2667 25.5538 47.2012 24.8475 49.1667 24.2365C49.6092 26.2301 49.9496 28.2449 50.1867 30.2732ZM32.2667 19.4498C34.3867 13.2832 37.5267 9.51651 39.9467 9.51651C42.5233 9.51317 45.87 13.5765 48.06 20.1732C48.2022 20.6043 48.3356 21.0376 48.46 21.4732C45.5852 22.3643 42.7724 23.4445 40.04 24.7065C37.317 23.4282 34.5106 22.3357 31.64 21.4365C31.8333 20.7698 32.0422 20.1076 32.2667 19.4498ZM30.9333 24.1965C32.8909 24.8108 34.8156 25.525 36.7 26.3365C34.3622 27.541 32.0867 28.8532 29.8733 30.2732C30.14 28.1465 30.4967 26.1098 30.9333 24.1965ZM29.8767 49.7298C30.9811 50.4387 32.1022 51.1198 33.24 51.7732C34.4 52.4398 35.5745 53.0798 36.7633 53.6932C34.8652 54.5321 32.9248 55.272 30.95 55.9098C30.4905 53.8699 30.1323 51.8085 29.8767 49.7332M48.0633 60.2198C47.1791 63.0443 45.78 65.6809 43.9367 67.9965C43.4815 68.6602 42.8955 69.2238 42.2144 69.6526C41.5334 70.0813 40.7719 70.3663 39.9767 70.4898C37.5467 70.4898 34.45 66.8732 32.3433 60.8365C32.0945 60.1232 31.8656 59.4032 31.6567 58.6765C34.541 57.7473 37.3587 56.6224 40.09 55.3098C42.8463 56.5805 45.6823 57.6706 48.58 58.5732C48.42 59.1265 48.2478 59.6754 48.0633 60.2198ZM49.27 55.8065C47.278 55.1859 45.3178 54.4673 43.3967 53.6532C44.5278 53.0598 45.6667 52.4321 46.8133 51.7698C47.9911 51.0898 49.1378 50.3932 50.2533 49.6798C50.0315 51.7377 49.7032 53.7826 49.27 55.8065ZM50.76 39.9965C50.76 42.021 50.6967 44.0432 50.57 46.0632C48.9233 47.1787 47.1967 48.2587 45.39 49.3032C43.59 50.341 41.8156 51.2921 40.0667 52.1565C38.2289 51.2765 36.4267 50.3276 34.66 49.3098C32.9045 48.2987 31.1889 47.2221 29.5133 46.0798C29.3578 44.0576 29.28 42.0332 29.28 40.0065C29.28 37.9821 29.3556 35.9587 29.5067 33.9365C32.8564 31.6469 36.3754 29.6155 40.0333 27.8598C41.8467 28.7421 43.6278 29.6876 45.3767 30.6965C47.1322 31.7054 48.8545 32.771 50.5433 33.8932C50.6878 35.9243 50.76 37.9587 50.76 39.9965ZM53.9467 23.0198C60.3533 21.7765 65.18 22.6132 66.39 24.7098C67.68 26.9432 65.8333 31.8698 61.21 37.0632C60.9545 37.3498 60.69 37.6376 60.4167 37.9265C58.1653 35.8904 55.7776 34.0105 53.27 32.2998C53.0179 29.3296 52.5669 26.3797 51.92 23.4698C52.6089 23.301 53.2845 23.151 53.9467 23.0198ZM53.5133 35.9698C55.2058 37.2039 56.8325 38.5257 58.3867 39.9298C56.8395 41.3563 55.2184 42.7004 53.53 43.9565C53.5811 42.6365 53.6067 41.3165 53.6067 39.9965C53.6067 38.6543 53.5756 37.3121 53.5133 35.9698ZM66.41 55.2665C65.1967 57.3698 60.5167 58.2465 54.2333 57.0598C53.5133 56.9243 52.7756 56.7621 52.02 56.5732C52.6516 53.6258 53.0826 50.6389 53.31 47.6332C55.8124 45.8927 58.1924 43.9827 60.4333 41.9165C60.8267 42.3232 61.2 42.7276 61.5533 43.1298C63.5589 45.3068 65.1445 47.8361 66.23 50.5898C66.5774 51.3159 66.7726 52.1053 66.8036 52.9096C66.8345 53.7138 66.7006 54.5159 66.41 55.2665Z" fill="#606060"/>
</svg>
