<svg width="74" height="74" viewBox="0 0 74 74" fill="none" xmlns="http://www.w3.org/2000/svg">
<g clip-path="url(#clip0_204_697)">
<path d="M36.3987 0.139762C36.2646 0.217809 35.7032 1.02314 35.1499 1.93022C33.7624 4.20803 33.7474 4.20918 31.8835 2.24818C30.6706 0.971684 30.3775 0.738121 29.9873 0.741012C29.7329 0.742168 29.4121 0.828887 29.2733 0.93295C29.1346 1.03701 28.7437 1.86489 28.4038 2.77312C27.6257 4.85437 27.5887 4.92086 27.1574 5.00468C26.8914 5.0544 26.381 4.76939 25.1553 3.88948C24.2506 3.23909 23.3631 2.70722 23.1833 2.70722C22.437 2.70722 22.2265 3.11537 21.871 5.25097C21.4201 7.96642 21.4351 7.95717 18.9873 6.84543C17.9987 6.39681 17.0622 6.03028 16.9043 6.03028C16.7465 6.03028 16.4465 6.19967 16.2395 6.40722C15.8625 6.78415 15.862 6.78589 15.9649 8.86193L16.0678 10.9403L15.6747 11.1507C15.3266 11.3369 15.0867 11.3143 13.5448 10.9495C11.533 10.4743 11.1075 10.487 10.7005 11.0363L10.4022 11.4369L10.8022 13.1505C11.0219 14.0928 11.2329 15.0005 11.2728 15.1664C11.3115 15.3323 11.2439 15.5977 11.1225 15.7561C10.9213 16.0151 10.708 16.0394 8.84469 16.0104C5.69275 15.9607 5.51411 16.2313 6.81547 19.0745C7.23056 19.9764 7.56992 20.7973 7.56992 20.8956C7.56992 21.4148 7.1554 21.6032 5.37651 21.894C4.38098 22.0559 3.51611 22.1889 3.45367 22.1889C3.39181 22.1889 3.20508 22.3247 3.03915 22.4907C2.49745 23.0318 2.65123 23.5405 3.87917 25.2737C5.40889 27.433 5.40658 27.4417 2.87901 28.4078C0.00515378 29.5074 -0.0532367 29.7779 2.13497 31.8534C4.17286 33.7866 4.17575 33.7583 1.86845 35.2088C0.120201 36.3061 0.0936071 36.3327 0.0490914 36.9282C-0.00467418 37.6526 0.00804447 37.6653 2.0945 38.94C4.1584 40.2004 4.1584 40.2385 2.13323 42.1544C-0.0451429 44.2149 0.0219196 44.5155 2.89809 45.6006C5.4112 46.5487 5.41467 46.5603 3.88206 48.719C3.01372 49.9429 2.73679 50.4534 2.73679 50.8309C2.73679 51.538 3.10506 51.7183 5.30367 52.0878C7.15714 52.3999 7.56992 52.5832 7.56992 53.0943C7.56992 53.1995 7.22998 54.0262 6.81431 54.931C5.52162 57.7464 5.66904 57.9806 8.7279 57.9806C11.5781 57.9806 11.5023 57.8939 10.8884 60.4631C10.4259 62.3998 10.4183 62.7709 10.8375 63.1889C11.1578 63.5104 11.7625 63.4745 13.653 63.0218C15.0977 62.6773 15.3509 62.6536 15.6856 62.8322L16.0672 63.0369L15.9649 65.1146C15.862 67.1919 15.8625 67.193 16.2395 67.5705C16.4465 67.7787 16.7505 67.9475 16.913 67.9475C17.0755 67.9475 18.0132 67.5832 18.9966 67.1358C21.4362 66.0281 21.4212 66.0188 21.8716 68.7256C22.2283 70.871 22.4364 71.2694 23.1978 71.2694C23.3868 71.2694 24.2558 70.7606 25.1287 70.1374C26.6631 69.043 27.0608 68.8713 27.4696 69.1315C27.5748 69.1979 27.9841 70.0969 28.3784 71.1289C28.9582 72.6465 29.1704 73.0425 29.4936 73.1963C30.1075 73.4911 30.488 73.2541 31.9321 71.6816C33.6757 69.7819 33.7474 69.7911 35.1708 72.0978C36.7433 74.645 37.1503 74.6393 38.7621 72.0464C40.1507 69.8125 40.1345 69.8137 42.0117 71.7747C43.2587 73.0754 43.5241 73.2836 43.9444 73.2836C44.2126 73.2836 44.5335 73.1824 44.6555 73.0592C44.7792 72.9361 45.1874 72.0267 45.562 71.0381C45.9372 70.0495 46.3257 69.1881 46.4263 69.1245C46.8235 68.8725 47.2345 69.0494 48.7665 70.1374C49.6684 70.778 50.5171 71.2705 50.7189 71.2705C51.4681 71.2705 51.7387 70.7387 52.0497 68.6487C52.3156 66.867 52.37 66.6958 52.7203 66.5183C53.0649 66.3437 53.2719 66.4027 54.8883 67.1369C55.8717 67.5821 56.8094 67.9475 56.9719 67.9475C57.1343 67.9475 57.4436 67.7729 57.6564 67.559L58.0449 67.1716L57.9385 65.1782C57.8362 63.2762 57.846 63.1733 58.1489 62.8987C58.4611 62.6166 58.4935 62.6177 60.2388 63.0166C62.3525 63.4994 62.7467 63.5121 63.1439 63.1149C63.5318 62.7276 63.5278 62.642 62.9971 60.4035C62.4016 57.891 62.3218 57.9812 65.1824 57.9812C67.133 57.9812 67.3504 57.9528 67.599 57.6788C68.014 57.2204 67.9152 56.6948 67.0809 54.9159C66.6595 54.0199 66.3178 53.2047 66.3207 53.1035C66.3346 52.5751 66.7503 52.3942 68.6708 52.082C69.8461 51.8918 70.7249 51.6715 70.8844 51.527C71.418 51.0454 71.2221 50.4181 70.0039 48.7098C68.4765 46.569 68.4835 46.5487 70.9284 45.6474C73.856 44.5687 73.9398 44.2091 71.7487 42.1267C69.7195 40.1986 69.7184 40.209 71.9412 38.8447C74.6284 37.1953 74.6324 36.8235 71.9887 35.1822C69.7149 33.7716 69.7166 33.7913 71.7545 31.8563C73.9398 29.7791 73.8809 29.5074 71.0058 28.4078C68.469 27.4371 68.4609 27.4134 70.0028 25.2975C70.9209 24.0371 71.1486 23.6192 71.1486 23.1873C71.1486 22.4323 70.8099 22.2635 68.5841 21.9039C66.7248 21.6032 66.3155 21.4211 66.3155 20.8921C66.3155 20.7915 66.6554 19.9822 67.0711 19.0924C67.884 17.3505 67.9984 16.6527 67.5382 16.2365C67.2908 16.0128 66.9601 15.9804 65.187 16.0099C63.3324 16.0411 63.0954 16.0145 62.8381 15.7561C62.5571 15.4739 62.5606 15.4341 62.9988 13.6026C63.537 11.3594 63.5394 11.3045 63.0971 10.8888C62.6479 10.4668 62.3675 10.4737 60.3071 10.9588C58.8057 11.3126 58.5571 11.3363 58.216 11.1536L57.8286 10.9455L57.9356 8.87465L58.0431 6.80496L57.6558 6.41762C57.4424 6.20371 57.1407 6.03028 56.9834 6.03028C56.8273 6.03028 55.8942 6.40028 54.912 6.85179C53.2713 7.60682 53.0949 7.65712 52.74 7.47154C52.3862 7.28654 52.3272 7.10328 52.0248 5.2579C51.6762 3.12289 51.46 2.70722 50.7021 2.70722C50.5223 2.70722 49.6308 3.24198 48.7214 3.89526C47.2276 4.96826 47.0275 5.07001 46.6552 4.93993C46.3471 4.8324 46.1679 4.59884 45.9493 4.01551C45.7875 3.58654 45.477 2.75982 45.259 2.17881C44.8185 1.00637 44.5728 0.743903 43.9132 0.743903C43.5449 0.743903 43.2119 1.00868 42.0169 2.24934C40.138 4.20051 40.1317 4.19993 38.7505 1.93426C38.1984 1.02892 37.6214 0.2207 37.4682 0.138606C37.1231 -0.0463942 36.7167 -0.0463942 36.3987 0.139762ZM38.1099 6.96048C39.746 8.12482 38.8765 10.8628 36.8705 10.8628C34.9233 10.8628 33.9428 8.51737 35.3326 7.18595C36.1177 6.43439 37.2422 6.34246 38.1099 6.96048ZM36.0536 14.1911C37.126 14.5987 37.5659 14.3541 40.0149 11.9942L41.8545 10.2194L42.6332 10.3234C45.0758 10.6472 49.9332 12.7805 52.7244 14.7553C55.2889 16.5707 58.6976 20.2672 60.1504 22.8086L60.4608 23.3532L59.0849 26.4543C58.3276 28.1597 57.7078 29.734 57.7078 29.9537C57.7078 30.4613 58.0408 31.2643 58.3611 31.5296C58.4964 31.6424 59.7815 32.261 61.2165 32.9044L63.8238 34.0751L63.9267 34.7388C64.0597 35.6031 64.077 37.726 63.9568 38.329L63.8625 38.8007H62.3739C60.647 38.8007 60.7805 38.6464 60.6869 40.764C60.6187 42.2995 60.2475 43.1482 59.4034 43.698C58.0292 44.5947 55.7589 44.4322 54.7958 43.3685C54.6484 43.2043 54.361 42.3828 54.157 41.5416C53.5615 39.0823 52.762 37.7029 51.1548 36.3587C50.6472 35.9349 50.2327 35.5389 50.2327 35.4788C50.2327 35.4198 50.7905 34.9498 51.4727 34.4365C53.9575 32.5633 55.3866 30.3826 55.5427 28.2233C55.8428 24.1036 52.5608 20.2643 47.6791 19.0196C46.5217 18.7247 46.0274 18.7155 31.7089 18.7155C23.5822 18.7155 16.9321 18.6623 16.9321 18.5976C16.9321 18.4455 18.7387 16.6926 19.8025 15.8133C22.7243 13.3979 26.5191 11.4976 30.4498 10.483L31.8084 10.1303L33.7393 12.0884C34.8025 13.1655 35.8437 14.1119 36.0536 14.1911ZM11.7359 26.7902C12.6256 27.3729 12.9904 28.8367 12.4643 29.7166C11.6521 31.0787 9.59336 31.1359 8.77994 29.8195C7.59709 27.9065 9.87548 25.5709 11.7359 26.7902ZM64.1556 26.8653C66.4832 28.284 64.6794 31.7753 62.1877 30.6729C60.5244 29.9369 60.4707 27.6631 62.0981 26.8341C62.7768 26.4872 63.5567 26.4994 64.1562 26.8647M18.5942 35.5545V44.238H10.9167L10.6126 42.917C10.0137 40.3154 9.76159 37.6237 9.91248 35.4193L10.0177 33.8705L12.6568 32.687C14.3126 31.9453 15.3775 31.3793 15.5145 31.1695C16.1146 30.2537 16.058 29.5999 15.215 27.7394L14.8219 26.8711H18.593V35.5545M40.6942 27.248C42.3378 27.6759 43.2061 28.5459 43.2084 29.7658C43.2096 30.6619 42.7662 31.2227 41.6648 31.7198C40.8855 32.0725 40.7618 32.0812 35.8472 32.1292L30.8256 32.1777V27.0208H35.3245C38.8384 27.0208 40.0143 27.0706 40.6942 27.248ZM38.998 39.7089C39.8131 39.9356 40.7763 40.6432 41.27 41.3786C41.7891 42.1515 42.0927 43.1569 42.8118 46.4869C43.4189 49.3024 43.8103 50.2216 44.9047 51.4194C46.2604 52.9029 45.9453 52.8451 52.7174 52.8451C55.9607 52.8451 58.6132 52.8971 58.6132 52.9607C58.6132 53.0746 56.3799 55.7149 56.2833 55.7149C56.2556 55.7149 55.0889 55.4709 53.691 55.1721C49.743 54.3292 49.6008 54.428 48.6948 58.6593L48.1121 61.3777L47.586 61.6367C46.7084 62.0702 43.8554 62.9617 42.3771 63.267C39.9328 63.7699 37.2734 63.9387 34.936 63.7416C30.951 63.4034 25.6745 61.8575 25.4681 60.9666C25.4247 60.7776 25.1588 59.5542 24.8796 58.2471C24.5992 56.9405 24.2587 55.701 24.1222 55.4929C23.4689 54.4962 22.7821 54.4349 19.7591 55.1033C18.6144 55.3576 17.6154 55.5634 17.5391 55.5634C17.3957 55.5634 15.2711 53.107 15.2711 52.9416C15.2711 52.8896 20.317 52.8295 26.4844 52.8087L37.6972 52.7705L37.7376 48.7872C37.7665 45.9747 37.7272 44.7421 37.6047 44.5958C37.4694 44.4317 36.7462 44.3889 34.1296 44.3889H30.8256V39.5557L34.6395 39.5563C36.7357 39.5575 38.6979 39.6257 38.998 39.7089ZM21.7201 57.8239C23.503 58.9108 22.648 61.7575 20.539 61.7552C18.3768 61.7552 17.575 58.9339 19.4174 57.8089C20.0274 57.4372 21.0986 57.4447 21.7201 57.8239ZM54.3726 57.943C55.2467 58.5836 55.5375 59.9162 54.9964 60.8047C53.5742 63.1369 50.0176 61.2828 51.2056 58.8281C51.7895 57.6227 53.3418 57.1874 54.3726 57.943Z" fill="#606060"/>
</g>
<defs>
<clipPath id="clip0_204_697">
<rect width="74" height="74" fill="white"/>
</clipPath>
</defs>
</svg>
