
        <svg xmlns="http://www.w3.org/2000/svg" xmlns:xlink="http://www.w3.org/1999/xlink" version="1.1" width="3162.3266824484276" height="1253.3183325841119" viewBox="0 0 3162.3266824484276 1253.3183325841119">
			
			<g transform="scale(8.116334122421373) translate(10, 10)">
				<defs id="SvgjsDefs13117"/><g id="SvgjsG13118" featureKey="41S5F6-0" transform="matrix(1.7784552574157715,0,0,1.7784552574157715,-34.235264227642276,-21.716606326219512)" fill="#fff"><title xmlns="http://www.w3.org/2000/svg">Engineering</title><path xmlns="http://www.w3.org/2000/svg" d="M51.23,32.16a1,1,0,0,0-1.4,0A31.16,31.16,0,0,0,40,55a31.67,31.67,0,0,0,1.2,8.67,1,1,0,0,0,1,.72h3.3L49.13,71a1,1,0,0,0,1.74,0l3.71-6.56h3a1,1,0,0,0,1-.69A31.71,31.71,0,0,0,60,54,31.23,31.23,0,0,0,51.23,32.16ZM50,68.45l-2.29-4h4.58Zm-2.29-6,2.29-4,2.29,4Zm9.12,0H54.58l-3.71-6.56a1,1,0,0,0-1.74,0l-3.71,6.56H42.89A29.52,29.52,0,0,1,42,55a29.14,29.14,0,0,1,8.52-20.74,29.59,29.59,0,0,1,6.35,28.13ZM65.91,58a1,1,0,0,0-1.41,0l-4.73,4.73a1,1,0,0,0-.22,1.08,1,1,0,0,0,.93.62h3.31c.5,2.89-1.89,6.39-4.1,9.18a1,1,0,0,0,0,1.26,1,1,0,0,0,.77.36,1.07,1.07,0,0,0,.48-.12c5.8-3.17,9-7,9.77-11.7a1,1,0,0,0-.28-.87ZM64.29,70.44c1.34-2.43,2.06-5,1.21-7.36a1,1,0,0,0-.94-.67H62.89L65.2,60.1l3.47,3.46A12.42,12.42,0,0,1,64.29,70.44Zm-28.08-6h3.31a1,1,0,0,0,.93-.62,1,1,0,0,0-.22-1.08L35.5,58a1,1,0,0,0-.7-.3,1,1,0,0,0-.71.3l-4.54,4.54a1,1,0,0,0-.28.87c.77,4.71,4,8.53,9.77,11.7a1.07,1.07,0,0,0,.48.12,1,1,0,0,0,.77-.36,1,1,0,0,0,0-1.26C38.1,70.8,35.71,67.3,36.21,64.41Zm-4.88-.85L34.8,60.1l2.31,2.31H35.44a1,1,0,0,0-.94.67c-.85,2.41-.13,4.93,1.21,7.36A12.42,12.42,0,0,1,31.33,63.56ZM45.83,43A4.17,4.17,0,1,0,50,38.79,4.17,4.17,0,0,0,45.83,43Zm6.34,0A2.17,2.17,0,1,1,50,40.79,2.17,2.17,0,0,1,52.17,43ZM43.88,50h1v2h-1Zm3,0h2v2h-2ZM51,50h2.06v2H51Zm5.1,2h-1V50h1ZM50.2,72.49l-.19,0h0l-.18,0a7,7,0,0,0-5.73,6.88c0,3.3,4.71,7.67,5.25,8.16a1,1,0,0,0,1.35,0c.53-.49,5.24-4.86,5.24-8.16A7,7,0,0,0,50.2,72.49Zm.35,5.11A5.34,5.34,0,0,1,50,79.74a5.33,5.33,0,0,1-.54-2.14A6.07,6.07,0,0,1,50,74.88,6,6,0,0,1,50.55,77.6ZM50,85.41c-1.73-1.73-3.92-4.43-3.92-6a5,5,0,0,1,1.55-3.62.13.13,0,0,1,0,.06,9.86,9.86,0,0,0-.17,1.79,9.11,9.11,0,0,0,1.75,4.73,1,1,0,0,0,.8.4,1,1,0,0,0,.7-.32s.08,0,.11-.08a9.14,9.14,0,0,0,1.74-4.73c0-.24,0-.5,0-.75v0c0-.2-.05-.39-.07-.58a2.51,2.51,0,0,1,0-.27l0-.2a5,5,0,0,1,1.54,3.61C53.92,81,51.74,83.68,50,85.41Zm30.75-47v9.12a1,1,0,0,1-1,1H75.4A25.31,25.31,0,0,1,71.89,57L75,60.06a1,1,0,0,1,.29.71,1.05,1.05,0,0,1-.29.71l-1.34,1.34L72.21,61.4l.63-.63-3-2.94a1,1,0,0,1-.11-1.28,23.44,23.44,0,0,0,3.82-9.21,1,1,0,0,1,1-.82h4.17V39.4H74.58a1,1,0,0,1-1-.82,23.7,23.7,0,0,0-3.81-9.21,1,1,0,0,1,.11-1.28l2.95-2.94-5-5-2.94,2.95a1,1,0,0,1-1.28.11,23.7,23.7,0,0,0-9.21-3.81,1,1,0,0,1-.82-1V14.21H46.44v4.17a1,1,0,0,1-.82,1,23.65,23.65,0,0,0-9.2,3.81,1,1,0,0,1-1.28-.11l-3-2.95-5,5,2.95,2.94a1,1,0,0,1,.11,1.28,23.44,23.44,0,0,0-3.82,9.21,1,1,0,0,1-1,.82H21.25v7.12h4.17a1,1,0,0,1,1,.82,23.7,23.7,0,0,0,3.81,9.21,1,1,0,0,1-.11,1.28l-3,2.94.73.72L26.46,62.9,25,61.48a1,1,0,0,1,0-1.42L28.1,57a25.67,25.67,0,0,1-3.5-8.47H20.25a1,1,0,0,1-1-1V38.4a1,1,0,0,1,1-1H24.6a25.31,25.31,0,0,1,3.51-8.47L25,25.86a1,1,0,0,1,0-1.42L31.48,18a1,1,0,0,1,1.42,0L36,21.06a25.33,25.33,0,0,1,8.46-3.5V13.21a1,1,0,0,1,1-1h9.12a1,1,0,0,1,1,1v4.35A25.59,25.59,0,0,1,64,21.06L67.1,18a1,1,0,0,1,1.42,0L75,24.44a1,1,0,0,1,0,1.42L71.9,28.93a25.59,25.59,0,0,1,3.5,8.47h4.35A1,1,0,0,1,80.75,38.4ZM62.31,56.76c0-.48,0-.95,0-1.43s0-.93,0-1.39a17,17,0,0,0,2-2.76,15.76,15.76,0,0,0,1.63-3.92,16.5,16.5,0,0,0,0-8.6,16.12,16.12,0,0,0-1.62-3.92,16.52,16.52,0,0,0-6.09-6.08A16.17,16.17,0,0,0,54.3,27a16.79,16.79,0,0,0-8.6,0,16.53,16.53,0,0,0-10,7.72,16.17,16.17,0,0,0-1.64,3.92A16.74,16.74,0,0,0,33.5,43a16.38,16.38,0,0,0,.57,4.3,16.12,16.12,0,0,0,1.62,3.92A16.85,16.85,0,0,0,37.75,54c0,.86-.09,1.73-.09,2.6v.13A18.51,18.51,0,0,1,34,52.18a19,19,0,0,1-1.83-4.4,18.75,18.75,0,0,1,0-9.64A18.26,18.26,0,0,1,34,33.74a18.53,18.53,0,0,1,11.21-8.65A18.53,18.53,0,0,1,67.87,47.78h0a18.71,18.71,0,0,1-5.56,9Z"/></g><g id="SvgjsG13119" featureKey="RGwKHf-0" transform="matrix(2.15799617767334,0,0,2.15799617767334,125.41738921001927,22.925578034682083)" fill="#fff"><path d="M11.96 6.220000000000001 l0.14 0.14 l0 13.6 q-0.62 0.14 -1.56 0.14 t-1.64 -0.1 l-3.68 -7.74 q-0.8 -1.76 -1.2 -2.8 l-0.08 0.02 q0.22 2.82 0.22 5.44 l0 5.08 q-0.56 0.1 -1.27 0.1 t-1.23 -0.1 l0 -13.62 q0.58 -0.14 1.52 -0.14 t1.64 0.1 l3.64 7.74 l1.3 2.96 l0.06 -0.02 q-0.2 -2.9 -0.2 -5.48 l0 -3.66 q0 -0.9 0.34 -1.28 t1.14 -0.38 l0.86 0 z M21.272000000000002 16.58 l-0.02 1.24 l1.4 -0.04 l4.9 0 q0 0.64 -0.06 0.98 q-0.22 1.28 -1.72 1.28 l-5.62 0 q-0.72 0 -1.13 -0.43 t-0.41 -1.17 l0 -11.96 l0.14 -0.14 l8.34 0 q0.1 0.5 0.1 1.07 t-0.22 1.19 l-5.72 0 l0.02 1.38 l0 2.06 l1.3 -0.02 l3.38 0 q0.16 0.46 0.16 1.1 t-0.16 1.1 l-4.68 0 l0 2.36 z M40.364000000000004 6.34 q0.44 -0.1 1.17 -0.1 t1.35 0.22 l0.06 0.16 l-3.8 6.2 l4.22 6.76 q-0.86 0.6 -1.82 0.6 t-1.66 -1.08 l-2.48 -3.98 l-2.92 4.88 q-0.46 0.1 -1.18 0.1 t-1.38 -0.22 l-0.08 -0.16 l4.2 -6.82 l-3.8 -6.14 q0.86 -0.6 1.81 -0.6 t1.63 1.06 l2.1 3.4 z M53.196000000000005 8.56 l0.02 1.48 l0 9.96 q-0.58 0.1 -1.35 0.1 t-1.35 -0.1 l0 -9.96 l0.02 -1.48 l-1.22 0.02 l-2.22 0 q-0.1 -0.5 -0.1 -1.12 t0.1 -1.12 l9.56 0 q0.14 0.5 0.14 1.09 t-0.34 0.87 t-1.1 0.28 l-0.94 0 l-1.22 -0.02 l0 0 z M60.508 18.8 q0.06 -0.56 0.37 -1.13 t0.71 -0.91 q2.06 1.32 4.04 1.32 q0.96 0 1.52 -0.45 t0.56 -1.13 q-0.04 -1.16 -1.54 -1.82 l-2.36 -1 q-1.4 -0.58 -2.1 -1.49 t-0.7 -2.09 q0 -0.9 0.35 -1.64 t1 -1.27 t1.54 -0.83 t1.97 -0.3 q2.2 0 4.32 1.1 q-0.06 1.22 -0.94 2.04 q-2.02 -0.96 -3.52 -0.96 q-0.96 0 -1.47 0.44 t-0.51 1.08 q0 0.92 1.42 1.52 l2.36 1 q1.44 0.6 2.22 1.58 t0.78 2.26 q0 0.9 -0.32 1.67 t-0.97 1.32 t-1.62 0.86 t-2.29 0.31 q-2.56 0 -4.82 -1.48 z M80.76 8.56 l0.02 1.48 l0 9.96 q-0.58 0.1 -1.35 0.1 t-1.35 -0.1 l0 -9.96 l0.02 -1.48 l-1.22 0.02 l-2.22 0 q-0.1 -0.5 -0.1 -1.12 t0.1 -1.12 l9.56 0 q0.14 0.5 0.14 1.09 t-0.34 0.87 t-1.1 0.28 l-0.94 0 l-1.22 -0.02 l0 0 z M91.932 16.58 l-0.02 1.24 l1.4 -0.04 l4.9 0 q0 0.64 -0.06 0.98 q-0.22 1.28 -1.72 1.28 l-5.62 0 q-0.72 0 -1.13 -0.43 t-0.41 -1.17 l0 -11.96 l0.14 -0.14 l8.34 0 q0.1 0.5 0.1 1.07 t-0.22 1.19 l-5.72 0 l0.02 1.38 l0 2.06 l1.3 -0.02 l3.38 0 q0.16 0.46 0.16 1.1 t-0.16 1.1 l-4.68 0 l0 2.36 z M108.424 15.46 l-1.84 0 l0 4.54 q-0.56 0.1 -1.34 0.1 t-1.34 -0.1 l0 -13.56 l0.14 -0.12 q1.62 -0.04 2.71 -0.06 t1.67 -0.02 q2.16 0 3.45 1.18 t1.29 3.42 q0 1.12 -0.34 1.98 t-0.96 1.44 t-1.49 0.89 t-1.95 0.31 z M106.584 8.32 l0 5.1 q0.78 -0.02 1.33 -0.02 t0.94 -0.07 t0.66 -0.26 t0.49 -0.57 q0.2 -0.34 0.3 -0.77 t0.1 -0.87 q0 -0.46 -0.1 -0.91 t-0.34 -0.81 t-0.64 -0.58 t-1 -0.22 l-1.01 0 t-0.73 -0.02 z"/></g><g id="SvgjsG13120" featureKey="RGwKHf-1" transform="matrix(0.5653969645500183,0,0,0.5653969645500183,128.0723955943093,73.5744894446994)" fill="#fff"><path d="M4.3 16.58 l-0.02 1.24 l1.4 -0.04 l4.9 0 q0 0.64 -0.06 0.98 q-0.22 1.28 -1.72 1.28 l-5.62 0 q-0.72 0 -1.13 -0.43 t-0.41 -1.17 l0 -11.96 l0.14 -0.14 l8.34 0 q0.1 0.5 0.1 1.07 t-0.22 1.19 l-5.72 0 l0.02 1.38 l0 2.06 l1.3 -0.02 l3.38 0 q0.16 0.46 0.16 1.1 t-0.16 1.1 l-4.68 0 l0 2.36 z M26.572000000000003 6.220000000000001 l0.14 0.14 l0 13.6 q-0.62 0.14 -1.56 0.14 t-1.64 -0.1 l-3.68 -7.74 q-0.8 -1.76 -1.2 -2.8 l-0.08 0.02 q0.22 2.82 0.22 5.44 l0 5.08 q-0.56 0.1 -1.27 0.1 t-1.23 -0.1 l0 -13.62 q0.58 -0.14 1.52 -0.14 t1.64 0.1 l3.64 7.74 l1.3 2.96 l0.06 -0.02 q-0.2 -2.9 -0.2 -5.48 l0 -3.66 q0 -0.9 0.34 -1.28 t1.14 -0.38 l0.86 0 z M38.484 12.52 l3.1 -0.02 q1.84 0 1.84 1.7 l0 5.24 q-2.38 0.84 -5.22 0.84 q-1.44 0 -2.53 -0.5 t-1.81 -1.42 t-1.08 -2.22 t-0.36 -2.88 q0 -1.84 0.52 -3.2 t1.38 -2.25 t1.99 -1.32 t2.37 -0.43 q2.56 0 4.7 1.44 q-0.06 0.58 -0.43 1.13 t-0.81 0.83 q-1.6 -1.14 -3.36 -1.14 q-3.6 0 -3.6 4.9 t3.58 4.9 q1.1 0 2.12 -0.24 l0 -1.78 q0 -0.44 0.01 -0.77 t0.03 -0.55 l-1.36 0 q-0.7 0 -0.99 -0.28 t-0.29 -0.9 q0 -0.52 0.2 -1.08 z M49.496 20 l0 -13.66 q0.5 -0.1 1.31 -0.1 t1.37 0.1 l0 13.66 q-0.56 0.1 -1.37 0.1 t-1.31 -0.1 z M69.06800000000001 6.220000000000001 l0.14 0.14 l0 13.6 q-0.62 0.14 -1.56 0.14 t-1.64 -0.1 l-3.68 -7.74 q-0.8 -1.76 -1.2 -2.8 l-0.08 0.02 q0.22 2.82 0.22 5.44 l0 5.08 q-0.56 0.1 -1.27 0.1 t-1.23 -0.1 l0 -13.62 q0.58 -0.14 1.52 -0.14 t1.64 0.1 l3.64 7.74 l1.3 2.96 l0.06 -0.02 q-0.2 -2.9 -0.2 -5.48 l0 -3.66 q0 -0.9 0.34 -1.28 t1.14 -0.38 l0.86 0 z M78.38000000000001 16.58 l-0.02 1.24 l1.4 -0.04 l4.9 0 q0 0.64 -0.06 0.98 q-0.22 1.28 -1.72 1.28 l-5.62 0 q-0.72 0 -1.13 -0.43 t-0.41 -1.17 l0 -11.96 l0.14 -0.14 l8.34 0 q0.1 0.5 0.1 1.07 t-0.22 1.19 l-5.72 0 l0.02 1.38 l0 2.06 l1.3 -0.02 l3.38 0 q0.16 0.46 0.16 1.1 t-0.16 1.1 l-4.68 0 l0 2.36 z M92.992 16.58 l-0.02 1.24 l1.4 -0.04 l4.9 0 q0 0.64 -0.06 0.98 q-0.22 1.28 -1.72 1.28 l-5.62 0 q-0.72 0 -1.13 -0.43 t-0.41 -1.17 l0 -11.96 l0.14 -0.14 l8.34 0 q0.1 0.5 0.1 1.07 t-0.22 1.19 l-5.72 0 l0.02 1.38 l0 2.06 l1.3 -0.02 l3.38 0 q0.16 0.46 0.16 1.1 t-0.16 1.1 l-4.68 0 l0 2.36 z M114.364 10.46 q0 0.66 -0.19 1.25 t-0.53 1.06 t-0.79 0.82 t-0.99 0.53 q0.52 0.18 0.87 0.62 t0.61 1.14 l0.74 2.02 q0.18 0.5 0.4 0.86 t0.54 0.6 q-0.26 0.36 -0.75 0.58 t-1.11 0.22 q-0.6 0 -0.96 -0.36 t-0.66 -1.22 l-0.84 -2.38 q-0.26 -0.7 -0.66 -1.07 t-1.2 -0.37 l-1.22 0 l0 5.24 q-0.28 0.04 -0.62 0.07 t-0.74 0.03 q-0.74 0 -1.3 -0.1 l0 -13.56 l0.14 -0.12 q1.62 -0.04 2.75 -0.06 t1.81 -0.02 q2.16 0 3.43 1.08 t1.27 3.14 z M107.624 8.28 l0 4.4 q1.04 -0.06 1.84 -0.06 q2.14 0 2.14 -2.16 t-2.14 -2.16 l-1.07 0 t-0.77 -0.02 z M120.396 20 l0 -13.66 q0.5 -0.1 1.31 -0.1 t1.37 0.1 l0 13.66 q-0.56 0.1 -1.37 0.1 t-1.31 -0.1 z M139.96800000000002 6.220000000000001 l0.14 0.14 l0 13.6 q-0.62 0.14 -1.56 0.14 t-1.64 -0.1 l-3.68 -7.74 q-0.8 -1.76 -1.2 -2.8 l-0.08 0.02 q0.22 2.82 0.22 5.44 l0 5.08 q-0.56 0.1 -1.27 0.1 t-1.23 -0.1 l0 -13.62 q0.58 -0.14 1.52 -0.14 t1.64 0.1 l3.64 7.74 l1.3 2.96 l0.06 -0.02 q-0.2 -2.9 -0.2 -5.48 l0 -3.66 q0 -0.9 0.34 -1.28 t1.14 -0.38 l0.86 0 z M151.88000000000002 12.52 l3.1 -0.02 q1.84 0 1.84 1.7 l0 5.24 q-2.38 0.84 -5.22 0.84 q-1.44 0 -2.53 -0.5 t-1.81 -1.42 t-1.08 -2.22 t-0.36 -2.88 q0 -1.84 0.52 -3.2 t1.38 -2.25 t1.99 -1.32 t2.37 -0.43 q2.56 0 4.7 1.44 q-0.06 0.58 -0.43 1.13 t-0.81 0.83 q-1.6 -1.14 -3.36 -1.14 q-3.6 0 -3.6 4.9 t3.58 4.9 q1.1 0 2.12 -0.24 l0 -1.78 q0 -0.44 0.01 -0.77 t0.03 -0.55 l-1.36 0 q-0.7 0 -0.99 -0.28 t-0.29 -0.9 q0 -0.52 0.2 -1.08 z M169.22400000000002 18.8 q0.06 -0.56 0.37 -1.13 t0.71 -0.91 q2.06 1.32 4.04 1.32 q0.96 0 1.52 -0.45 t0.56 -1.13 q-0.04 -1.16 -1.54 -1.82 l-2.36 -1 q-1.4 -0.58 -2.1 -1.49 t-0.7 -2.09 q0 -0.9 0.35 -1.64 t1 -1.27 t1.54 -0.83 t1.97 -0.3 q2.2 0 4.32 1.1 q-0.06 1.22 -0.94 2.04 q-2.02 -0.96 -3.52 -0.96 q-0.96 0 -1.47 0.44 t-0.51 1.08 q0 0.92 1.42 1.52 l2.36 1 q1.44 0.6 2.22 1.58 t0.78 2.26 q0 0.9 -0.32 1.67 t-0.97 1.32 t-1.62 0.86 t-2.29 0.31 q-2.56 0 -4.82 -1.48 z M192.69600000000003 13.18 q0 -5.02 -2.96 -5.02 t-2.96 5.02 q0 5 2.96 5 t2.96 -5 z M186.096 19.06 q-2.14 -1.84 -2.14 -5.88 q0 -1.7 0.39 -3.02 t1.14 -2.23 t1.82 -1.39 t2.45 -0.48 q1.36 0 2.43 0.48 t1.81 1.39 t1.13 2.24 t0.39 3.01 t-0.39 3 t-1.13 2.23 t-1.81 1.39 t-2.43 0.48 q-2.18 0 -3.66 -1.22 z M203.90800000000002 20 q-0.54 0.1 -1.33 0.1 t-1.35 -0.1 l0 -13.54 l0.14 -0.12 l8.24 0 q0.12 0.46 0.12 1.08 t-0.35 0.91 t-1.11 0.29 l-4.38 0 l0.02 1.94 l0 1.5 l4.56 0 q0.14 0.44 0.14 1.09 t-0.14 1.13 l-4.56 0 l0 5.72 z M219.72000000000003 8.56 l0.02 1.48 l0 9.96 q-0.58 0.1 -1.35 0.1 t-1.35 -0.1 l0 -9.96 l0.02 -1.48 l-1.22 0.02 l-2.22 0 q-0.1 -0.5 -0.1 -1.12 t0.1 -1.12 l9.56 0 q0.14 0.5 0.14 1.09 t-0.34 0.87 t-1.1 0.28 l-0.94 0 l-1.22 -0.02 l0 0 z M229.472 18.86 l-2.44 -12.36 q0.7 -0.32 1.42 -0.32 t1.04 0.31 t0.46 1.15 l1.04 5.96 q0.44 2.52 0.52 3.31 t0.11 0.82 t0.15 0.03 l1.9 -11.14 q0.76 -0.14 1.76 -0.14 t1.7 0.14 l1.74 10.9 q0.04 0.24 0.2 0.24 q0.2 -1.7 0.66 -4.2 l1.32 -7.22 q0.5 -0.1 1.22 -0.1 t1.26 0.18 l0.14 0.16 l-2.76 13.4 q-0.92 0.12 -1.98 0.12 t-1.47 -0.24 t-0.51 -1 l-0.82 -4.82 q-0.46 -2.78 -0.68 -4.78 l-0.16 0 q-0.26 1.96 -0.76 4.78 l-1.06 5.94 q-0.96 0.12 -1.98 0.12 t-1.44 -0.24 t-0.58 -1 z M255.364 16.9 l-0.98 0.02 l-2.8 0 l-0.98 -0.02 l-0.94 3.12 q-0.42 0.1 -1.19 0.1 t-1.25 -0.18 l-0.1 -0.14 l4.46 -13.46 q0.74 -0.1 1.6 -0.1 t1.5 0.12 l4.38 13.46 q-0.58 0.34 -1.39 0.34 t-1.16 -0.3 t-0.59 -1.14 z M251.26399999999998 14.780000000000001 l0.9 -0.02 l1.72 0 l0.84 0.02 l-0.6 -2.04 q-0.68 -2.28 -1.08 -3.88 l-0.12 0 q-0.18 0.86 -0.88 3.38 z M273.616 10.46 q0 0.66 -0.19 1.25 t-0.53 1.06 t-0.79 0.82 t-0.99 0.53 q0.52 0.18 0.87 0.62 t0.61 1.14 l0.74 2.02 q0.18 0.5 0.4 0.86 t0.54 0.6 q-0.26 0.36 -0.75 0.58 t-1.11 0.22 q-0.6 0 -0.96 -0.36 t-0.66 -1.22 l-0.84 -2.38 q-0.26 -0.7 -0.66 -1.07 t-1.2 -0.37 l-1.22 0 l0 5.24 q-0.28 0.04 -0.62 0.07 t-0.74 0.03 q-0.74 0 -1.3 -0.1 l0 -13.56 l0.14 -0.12 q1.62 -0.04 2.75 -0.06 t1.81 -0.02 q2.16 0 3.43 1.08 t1.27 3.14 z M266.876 8.28 l0 4.4 q1.04 -0.06 1.84 -0.06 q2.14 0 2.14 -2.16 t-2.14 -2.16 l-1.07 0 t-0.77 -0.02 z M282.228 16.58 l-0.02 1.24 l1.4 -0.04 l4.9 0 q0 0.64 -0.06 0.98 q-0.22 1.28 -1.72 1.28 l-5.62 0 q-0.72 0 -1.13 -0.43 t-0.41 -1.17 l0 -11.96 l0.14 -0.14 l8.34 0 q0.1 0.5 0.1 1.07 t-0.22 1.19 l-5.72 0 l0.02 1.38 l0 2.06 l1.3 -0.02 l3.38 0 q0.16 0.46 0.16 1.1 t-0.16 1.1 l-4.68 0 l0 2.36 z M300.59200000000004 18.8 q0.06 -0.56 0.37 -1.13 t0.71 -0.91 q2.06 1.32 4.04 1.32 q0.96 0 1.52 -0.45 t0.56 -1.13 q-0.04 -1.16 -1.54 -1.82 l-2.36 -1 q-1.4 -0.58 -2.1 -1.49 t-0.7 -2.09 q0 -0.9 0.35 -1.64 t1 -1.27 t1.54 -0.83 t1.97 -0.3 q2.2 0 4.32 1.1 q-0.06 1.22 -0.94 2.04 q-2.02 -0.96 -3.52 -0.96 q-0.96 0 -1.47 0.44 t-0.51 1.08 q0 0.92 1.42 1.52 l2.36 1 q1.44 0.6 2.22 1.58 t0.78 2.26 q0 0.9 -0.32 1.67 t-0.97 1.32 t-1.62 0.86 t-2.29 0.31 q-2.56 0 -4.82 -1.48 z M324.064 13.18 q0 -5.02 -2.96 -5.02 t-2.96 5.02 q0 5 2.96 5 t2.96 -5 z M317.46400000000006 19.06 q-2.14 -1.84 -2.14 -5.88 q0 -1.7 0.39 -3.02 t1.14 -2.23 t1.82 -1.39 t2.45 -0.48 q1.36 0 2.43 0.48 t1.81 1.39 t1.13 2.24 t0.39 3.01 t-0.39 3 t-1.13 2.23 t-1.81 1.39 t-2.43 0.48 q-2.18 0 -3.66 -1.22 z M337.09600000000006 17.72 l3.72 0 q0 0.6 -0.08 1.02 q-0.22 1.3 -1.74 1.3 l-4.86 0 q-0.72 0 -1.14 -0.43 t-0.42 -1.17 l0 -12.08 l0.14 -0.14 l1 0 q0.8 0 1.18 0.41 t0.38 1.31 l0 9.86 q0.86 -0.08 1.82 -0.08 z M356.0880000000001 6.34 l0 8.74 q0 2.5 -1.37 3.85 t-3.87 1.35 q-2.48 0 -3.85 -1.35 t-1.37 -3.85 l0 -8.72 l0.12 -0.14 l1 0 q0.8 0 1.18 0.41 t0.38 1.31 l0 7.16 q0 3.04 2.54 3.04 q2.56 0 2.56 -3.04 l0 -8.76 q0.56 -0.1 1.34 -0.1 t1.34 0.1 z M367.1400000000001 8.56 l0.02 1.48 l0 9.96 q-0.58 0.1 -1.35 0.1 t-1.35 -0.1 l0 -9.96 l0.02 -1.48 l-1.22 0.02 l-2.22 0 q-0.1 -0.5 -0.1 -1.12 t0.1 -1.12 l9.56 0 q0.14 0.5 0.14 1.09 t-0.34 0.87 t-1.1 0.28 l-0.94 0 l-1.22 -0.02 l0 0 z M375.7320000000001 20 l0 -13.66 q0.5 -0.1 1.31 -0.1 t1.37 0.1 l0 13.66 q-0.56 0.1 -1.37 0.1 t-1.31 -0.1 z M392.92400000000004 13.18 q0 -5.02 -2.96 -5.02 t-2.96 5.02 q0 5 2.96 5 t2.96 -5 z M386.32400000000007 19.06 q-2.14 -1.84 -2.14 -5.88 q0 -1.7 0.39 -3.02 t1.14 -2.23 t1.82 -1.39 t2.45 -0.48 q1.36 0 2.43 0.48 t1.81 1.39 t1.13 2.24 t0.39 3.01 t-0.39 3 t-1.13 2.23 t-1.81 1.39 t-2.43 0.48 q-2.18 0 -3.66 -1.22 z M411.75600000000003 6.220000000000001 l0.14 0.14 l0 13.6 q-0.62 0.14 -1.56 0.14 t-1.64 -0.1 l-3.68 -7.74 q-0.8 -1.76 -1.2 -2.8 l-0.08 0.02 q0.22 2.82 0.22 5.44 l0 5.08 q-0.56 0.1 -1.27 0.1 t-1.23 -0.1 l0 -13.62 q0.58 -0.14 1.52 -0.14 t1.64 0.1 l3.64 7.74 l1.3 2.96 l0.06 -0.02 q-0.2 -2.9 -0.2 -5.48 l0 -3.66 q0 -0.9 0.34 -1.28 t1.14 -0.38 l0.86 0 z M417.208 18.8 q0.06 -0.56 0.37 -1.13 t0.71 -0.91 q2.06 1.32 4.04 1.32 q0.96 0 1.52 -0.45 t0.56 -1.13 q-0.04 -1.16 -1.54 -1.82 l-2.36 -1 q-1.4 -0.58 -2.1 -1.49 t-0.7 -2.09 q0 -0.9 0.35 -1.64 t1 -1.27 t1.54 -0.83 t1.97 -0.3 q2.2 0 4.32 1.1 q-0.06 1.22 -0.94 2.04 q-2.02 -0.96 -3.52 -0.96 q-0.96 0 -1.47 0.44 t-0.51 1.08 q0 0.92 1.42 1.52 l2.36 1 q1.44 0.6 2.22 1.58 t0.78 2.26 q0 0.9 -0.32 1.67 t-0.97 1.32 t-1.62 0.86 t-2.29 0.31 q-2.56 0 -4.82 -1.48 z"/></g><g id="SvgjsG13121" featureKey="UxezYZ-0" transform="matrix(0.3026118278503418,0,0,0.3026118278503418,170.75767412188532,93.24461498048635)" fill="#fff"><path d="M10.24 6 l0 1.56 l-3.88 0 l0 12.44 l-1.66 0 l0 -12.44 l-3.9 0 l0 -1.56 l9.44 0 z M24.904 18.44 l6.66 0 l0 1.56 l-7.06 0 l-1.26 0 l0 -14 l1.66 0 l6.48 0 l0 1.56 l-6.48 0 l0 4.64 l5.04 0 l0 1.52 l-5.04 0 l0 4.72 z M56.228 18.5 c-1.28 1.1 -2.9 1.7 -4.7 1.7 c-3.64 0 -7.16 -2.96 -7.16 -7.2 s3.52 -7.2 7.16 -7.2 c1.78 0 3.38 0.6 4.64 1.66 l-1.02 1.16 c-0.98 -0.78 -2.24 -1.24 -3.5 -1.24 c-2.86 0 -5.56 2.32 -5.56 5.62 s2.7 5.62 5.56 5.62 c1.28 0 2.56 -0.48 3.54 -1.28 z M77.912 6 l1.66 0 l0 14 l-1.66 0 l0 -6.12 l-7.12 0 l0 6.12 l-1.66 0 l0 -14 l1.66 0 l0 6.32 l7.12 0 l0 -6.32 z M102.73600000000002 6 l1.66 0 l0 14 l-1.28 0 l-8.48 -10.96 l0 10.96 l-1.66 0 l0 -14 l1.28 0 l8.48 10.98 l0 -10.98 z M124.66000000000001 5.800000000000001 c3.64 0 7.16 2.96 7.16 7.2 s-3.52 7.2 -7.16 7.2 c-3.66 0 -7.16 -2.96 -7.16 -7.2 s3.5 -7.2 7.16 -7.2 z M124.66000000000001 18.62 c2.74 0 5.44 -2.32 5.44 -5.62 s-2.7 -5.62 -5.44 -5.62 c-2.76 0 -5.44 2.32 -5.44 5.62 s2.68 5.62 5.44 5.62 z M146.58400000000003 18.44 l6.28 0 l0 1.56 l-7.94 0 l0 -14 l1.66 0 l0 12.44 z M172.728 5.800000000000001 c3.64 0 7.16 2.96 7.16 7.2 s-3.52 7.2 -7.16 7.2 c-3.66 0 -7.16 -2.96 -7.16 -7.2 s3.5 -7.2 7.16 -7.2 z M172.728 18.62 c2.74 0 5.44 -2.32 5.44 -5.62 s-2.7 -5.62 -5.44 -5.62 c-2.76 0 -5.44 2.32 -5.44 5.62 s2.68 5.62 5.44 5.62 z M206.252 12.96 c0.3 4.48 -2.76 7.24 -6.4 7.24 c-3.74 0 -7.16 -2.96 -7.16 -7.2 s3.5 -7.2 7.16 -7.2 c1.76 0 3.36 0.6 4.62 1.66 l-1.02 1.16 c-0.98 -0.78 -2.24 -1.24 -3.5 -1.24 c-2.86 0 -5.54 2.32 -5.54 5.62 s2.6 5.62 5.44 5.62 c2.48 0 4.46 -1.34 4.84 -4.22 l-4.08 0 l0 -1.44 l5.64 0 z M229.99599999999998 6 l-5.22 7.54 l0 6.46 l-1.66 0 l0 -6.46 l-5.22 -7.54 l1.9 0 l4.14 6.02 l4.16 -6.02 l1.9 0 z M271.224 18.66 c0.48 0 0.86 -0.12 1.28 -0.36 l0 1.36 c-0.42 0.32 -0.82 0.46 -1.44 0.46 c-1.26 0 -1.86 -0.76 -1.86 -2.02 l0 -0.52 c-0.66 1.62 -2.16 2.66 -4.34 2.66 c-2.64 0 -5.06 -1.6 -5.06 -4.52 c0 -2.52 1.86 -3.94 3.96 -4.16 l-3.24 -5.56 l8.78 0 l0 1.44 l-6.44 0 l3.08 5.28 l-0.9 0 c-2 0 -3.58 1.14 -3.58 3 c0 1.98 1.64 3.06 3.5 3.06 c2.14 0 3.74 -1.42 3.74 -3.38 l0 -3.54 l3.16 0 l0 1.38 l-1.56 0 l0 4.36 c0 0.78 0.34 1.06 0.92 1.06 z M304.072 6 l0 14 l-1.66 0 l0 -14 l1.66 0 z M327.236 6 l1.66 0 l0 14 l-1.28 0 l-8.48 -10.96 l0 10.96 l-1.66 0 l0 -14 l1.28 0 l8.48 10.98 l0 -10.98 z M352.06 6 l1.66 0 l0 14 l-1.28 0 l-8.48 -10.96 l0 10.96 l-1.66 0 l0 -14 l1.28 0 l8.48 10.98 l0 -10.98 z M373.98400000000004 5.800000000000001 c3.64 0 7.16 2.96 7.16 7.2 s-3.52 7.2 -7.16 7.2 c-3.66 0 -7.16 -2.96 -7.16 -7.2 s3.5 -7.2 7.16 -7.2 z M373.98400000000004 18.62 c2.74 0 5.44 -2.32 5.44 -5.62 s-2.7 -5.62 -5.44 -5.62 c-2.76 0 -5.44 2.32 -5.44 5.62 s2.68 5.62 5.44 5.62 z M405.56800000000004 6 l1.76 0 l-6.26 14 l-1.38 0 l-6.24 -14 l1.76 0 l5.18 11.82 z M431.25200000000007 20 l-1.44 -3.3 l-7.48 0 l-1.44 3.3 l-1.76 0 l6.24 -14 l1.38 0 l6.26 14 l-1.76 0 z M422.9520000000001 15.3 l6.24 0 l-3.12 -7.12 z M454.65600000000006 6 l0 1.56 l-3.88 0 l0 12.44 l-1.66 0 l0 -12.44 l-3.9 0 l0 -1.56 l9.44 0 z M469.32000000000005 6 l0 14 l-1.66 0 l0 -14 l1.66 0 z M489.58400000000006 5.800000000000001 c3.64 0 7.16 2.96 7.16 7.2 s-3.52 7.2 -7.16 7.2 c-3.66 0 -7.16 -2.96 -7.16 -7.2 s3.5 -7.2 7.16 -7.2 z M489.58400000000006 18.62 c2.74 0 5.44 -2.32 5.44 -5.62 s-2.7 -5.62 -5.44 -5.62 c-2.76 0 -5.44 2.32 -5.44 5.62 s2.68 5.62 5.44 5.62 z M519.6080000000001 6 l1.66 0 l0 14 l-1.28 0 l-8.48 -10.96 l0 10.96 l-1.66 0 l0 -14 l1.28 0 l8.48 10.98 l0 -10.98 z"/></g>
			</g>
		</svg>
	