<svg width="50" height="50" viewBox="0 0 50 50" fill="none" xmlns="http://www.w3.org/2000/svg">
<path d="M8.33331 27.0832H18.75M25 33.3332V16.6665H31.25C32.355 16.6665 33.4149 17.1055 34.1963 17.8869C34.9777 18.6683 35.4166 19.7281 35.4166 20.8332V22.9165C35.4166 24.0216 34.9777 25.0814 34.1963 25.8628C33.4149 26.6442 32.355 27.0832 31.25 27.0832H25M41.6666 16.6665V33.3332M18.75 33.3332V21.8748C18.75 20.4935 18.2012 19.1687 17.2245 18.192C16.2477 17.2152 14.923 16.6665 13.5416 16.6665C12.1603 16.6665 10.8356 17.2152 9.8588 18.192C8.88205 19.1687 8.33331 20.4935 8.33331 21.8748V33.3332" stroke="#1D1D1D" stroke-width="2" stroke-linecap="round" stroke-linejoin="round"/>
</svg>
