<svg width="40" height="40" viewBox="0 0 40 40" fill="none" xmlns="http://www.w3.org/2000/svg">
<g clip-path="url(#clip0_204_406)">
<path d="M10 7.5C9.33696 7.5 8.70107 7.76339 8.23223 8.23223C7.76339 8.70107 7.5 9.33696 7.5 10V30C7.5 30.663 7.76339 31.2989 8.23223 31.7678C8.70107 32.2366 9.33696 32.5 10 32.5H30C30.663 32.5 31.2989 32.2366 31.7678 31.7678C32.2366 31.2989 32.5 30.663 32.5 30V10C32.5 9.33696 32.2366 8.70107 31.7678 8.23223C31.2989 7.76339 30.663 7.5 30 7.5H10ZM35 27.5V30C35 31.3261 34.4732 32.5979 33.5355 33.5355C32.5979 34.4732 31.3261 35 30 35H27.5V40H25V35H21.25V40H18.75V35H15V40H12.5V35H10C8.67392 35 7.40215 34.4732 6.46447 33.5355C5.52678 32.5979 5 31.3261 5 30V27.5H0V25H5V21.25H0V18.75H5V15H0V12.5H5V10C5 8.67392 5.52678 7.40215 6.46447 6.46447C7.40215 5.52678 8.67392 5 10 5H12.5V0H15V5H18.75V0H21.25V5H25V0H27.5V5H30C31.3261 5 32.5979 5.52678 33.5355 6.46447C34.4732 7.40215 35 8.67392 35 10V12.5H40V15H35V18.75H40V21.25H35V25H40V27.5H35Z" fill="#474747"/>
<path d="M25 12.5H15C13.6193 12.5 12.5 13.6193 12.5 15V25C12.5 26.3807 13.6193 27.5 15 27.5H25C26.3807 27.5 27.5 26.3807 27.5 25V15C27.5 13.6193 26.3807 12.5 25 12.5Z" fill="#474747"/>
</g>
<defs>
<clipPath id="clip0_204_406">
<rect width="40" height="40" fill="white"/>
</clipPath>
</defs>
</svg>
