<svg width="40" height="40" viewBox="0 0 40 40" fill="none" xmlns="http://www.w3.org/2000/svg">
<path d="M33.75 23.75C35.8175 23.75 37.5 22.0675 37.5 20C37.5 17.9325 35.8175 16.25 33.75 16.25C32.977 16.2523 32.2236 16.4938 31.5933 16.9415C30.9631 17.3891 30.4868 18.0209 30.23 18.75H23.0175L32.1425 9.625C32.6325 9.85875 33.1725 10 33.75 10C35.8175 10 37.5 8.3175 37.5 6.25C37.5 4.1825 35.8175 2.5 33.75 2.5C31.6825 2.5 30 4.1825 30 6.25C30 6.8275 30.1425 7.3675 30.375 7.85625L20 18.2325V10C20 8.6225 21.1212 7.5 22.5 7.5H25V5H22.5C21 5 19.6675 5.67875 18.75 6.7275C18.285 6.18788 17.7096 5.7544 17.0627 5.45637C16.4157 5.15834 15.7123 5.00271 15 5H13.75C7.5475 5 2.5 10.0463 2.5 16.25V23.75C2.5 29.9537 7.5475 35 13.75 35H15C16.5 35 17.8325 34.3225 18.75 33.2725C19.6675 34.3225 21 35 22.5 35H25V32.5H22.5C21.1212 32.5 20 31.3788 20 30V21.7675L30.375 32.1438C30.1412 32.6325 30 33.1725 30 33.75C30 35.8187 31.6825 37.5 33.75 37.5C35.8175 37.5 37.5 35.8187 37.5 33.75C37.5 31.6813 35.8175 30 33.75 30C33.1931 30.0029 32.644 30.1315 32.1438 30.3763L23.0175 21.2512H30.23C30.487 21.9802 30.9634 22.6116 31.5936 23.059C32.2238 23.5064 32.9771 23.7478 33.75 23.75ZM33.75 18.75C34.0815 18.75 34.3995 18.8817 34.6339 19.1161C34.8683 19.3505 35 19.6685 35 20C35 20.3315 34.8683 20.6495 34.6339 20.8839C34.3995 21.1183 34.0815 21.25 33.75 21.25C33.4185 21.25 33.1005 21.1183 32.8661 20.8839C32.6317 20.6495 32.5 20.3315 32.5 20C32.5 19.6685 32.6317 19.3505 32.8661 19.1161C33.1005 18.8817 33.4185 18.75 33.75 18.75ZM33.75 5C34.0718 5.0144 34.3757 5.15238 34.5984 5.38523C34.8211 5.61807 34.9453 5.92783 34.9453 6.25C34.9453 6.57217 34.8211 6.88193 34.5984 7.11477C34.3757 7.34762 34.0718 7.4856 33.75 7.5C33.4185 7.5 33.1005 7.3683 32.8661 7.13388C32.6317 6.89946 32.5 6.58152 32.5 6.25C32.5 5.91848 32.6317 5.60054 32.8661 5.36612C33.1005 5.1317 33.4185 5 33.75 5ZM17.5 15H15V17.5H17.5V22.5H15C12.9325 22.5 11.25 24.1825 11.25 26.25V28.75H13.75V26.25C13.75 25.9185 13.8817 25.6005 14.1161 25.3661C14.3505 25.1317 14.6685 25 15 25H17.5V30C17.5 31.3788 16.3788 32.5 15 32.5H13.75C9.35 32.5 5.71 29.2338 5.1 25H7.5V22.5H5V17.5H8.75C10.8175 17.5 12.5 15.8175 12.5 13.75V11.25H10V13.75C10 14.0815 9.8683 14.3995 9.63388 14.6339C9.39946 14.8683 9.08152 15 8.75 15H5.1C5.71 10.7662 9.35 7.5 13.75 7.5H15C16.3788 7.5 17.5 8.6225 17.5 10V15ZM35 33.75C34.9856 34.0718 34.8476 34.3757 34.6148 34.5984C34.3819 34.8211 34.0722 34.9453 33.75 34.9453C33.4278 34.9453 33.1181 34.8211 32.8852 34.5984C32.6524 34.3757 32.5144 34.0718 32.5 33.75C32.5 33.0613 33.0613 32.5 33.75 32.5C34.4387 32.5 35 33.0613 35 33.75Z" fill="#3A3A3A"/>
</svg>
