<svg width="100" height="100" viewBox="0 0 100 100" fill="none" xmlns="http://www.w3.org/2000/svg">
<g clip-path="url(#clip0_204_476)">
<path d="M50 39.0278C47.8025 39.0278 45.6542 39.6795 43.827 40.9004C41.9998 42.1213 40.5757 43.8566 39.7347 45.8869C38.8937 47.9172 38.6737 50.1513 39.1024 52.3066C39.5311 54.462 40.5894 56.4418 42.1433 57.9957C43.6972 59.5496 45.677 60.6078 47.8324 61.0366C49.9877 61.4653 52.2218 61.2452 54.2521 60.4043C56.2824 59.5633 58.0177 58.1392 59.2386 56.3119C60.4595 54.4847 61.1111 52.3365 61.1111 50.1389C61.1111 47.1921 59.9405 44.3659 57.8568 42.2822C55.773 40.1985 52.9469 39.0278 50 39.0278ZM50 56.9167C48.6705 56.9167 47.3708 56.5225 46.2654 55.7838C45.1599 55.0452 44.2983 53.9953 43.7895 52.767C43.2807 51.5387 43.1476 50.187 43.407 48.8831C43.6664 47.5791 44.3066 46.3813 45.2467 45.4412C46.1868 44.501 47.3846 43.8608 48.6886 43.6014C49.9926 43.3421 51.3442 43.4752 52.5725 43.984C53.8008 44.4928 54.8507 45.3544 55.5894 46.4598C56.328 47.5653 56.7223 48.865 56.7223 50.1945C56.7223 51.0773 56.5484 51.9514 56.2106 52.767C55.8727 53.5826 55.3776 54.3236 54.7534 54.9478C54.1291 55.572 53.3881 56.0672 52.5725 56.405C51.7569 56.7428 50.8828 56.9167 50 56.9167Z" fill="#7E6C37"/>
<path d="M67.3055 32.5278C63.361 28.5765 59.1168 24.936 54.6111 21.6389C57.6929 19.7768 60.9266 18.1785 64.2777 16.8612C65.1666 16.5278 66 16.2778 66.8333 16.0278C67.5095 16.8459 68.3804 17.4809 69.366 17.8745C70.3516 18.2682 71.4204 18.4078 72.4741 18.2806C73.5278 18.1534 74.5326 17.7634 75.3962 17.1465C76.2598 16.5296 76.9546 15.7055 77.4166 14.75C79.4007 14.9277 81.2729 15.7468 82.75 17.0834C86.0555 20.3889 86.1389 27.0556 83.0277 35.3612C84.3889 37.1667 85.6389 39 86.7777 40.9167C87.25 39.8056 87.75 38.7223 88.1389 37.6389C92.2222 26.9445 91.6944 18.1945 86.6666 13.25C84.1499 10.87 80.8745 9.45368 77.4166 9.25004C76.8396 8.04715 75.899 7.05612 74.7278 6.41716C73.5567 5.77819 72.2142 5.52363 70.8904 5.68949C69.5667 5.85535 68.3285 6.43322 67.3512 7.34137C66.3739 8.24952 65.7068 9.44197 65.4444 10.75C64.4166 11.0556 63.3889 11.3612 62.3055 11.7778C57.8689 13.5292 53.6166 15.7158 49.6111 18.3056C45.6012 15.6758 41.3395 13.4518 36.8889 11.6667C26.1944 7.61115 17.4444 8.11116 12.5277 13.1389C7.91663 17.7778 7.16663 25.4723 10.2222 34.9723C9.52479 35.869 9.08144 36.9369 8.93859 38.0639C8.79575 39.1909 8.95867 40.3356 9.41028 41.378C9.86189 42.4204 10.5856 43.3221 11.5055 43.9887C12.4254 44.6553 13.5076 45.0622 14.6389 45.1667C15.5277 46.8612 16.5 48.5556 17.5833 50.2223C15.003 54.2343 12.8346 58.4966 11.1111 62.9445C7.02774 73.6112 7.55552 82.3889 12.5833 87.3056C14.113 88.7352 15.9142 89.8432 17.8801 90.5637C19.8459 91.2842 21.9365 91.6026 24.0277 91.5C28.4652 91.3578 32.8407 90.4168 36.9444 88.7223C41.3906 86.9725 45.6523 84.7859 49.6666 82.1945C53.6477 84.8387 57.8814 87.0811 62.3055 88.8889C65.5594 90.1679 68.9689 91.0086 72.4444 91.3889C73.0545 92.6863 74.0832 93.7408 75.3651 94.3827C76.647 95.0247 78.1075 95.2168 79.5119 94.9283C80.9162 94.6397 82.1826 93.8872 83.1075 92.7918C84.0324 91.6964 84.562 90.3217 84.6111 88.8889C85.3482 88.4323 86.0369 87.9018 86.6666 87.3056C91.6944 82.2778 92.2222 73.6112 88.1389 62.9445C83.3466 51.4881 76.2562 41.136 67.3055 32.5278ZM34.9166 83.5834C26.5833 86.7778 19.7777 86.7223 16.4444 83.3612C13.1111 80 13.0277 73.3056 16.25 64.9167C17.5584 61.5665 19.1474 58.3328 21 55.25C24.3066 59.7395 27.9465 63.9737 31.8889 67.9167C33.0833 69.1112 34.3055 70.2778 35.5277 71.3889C37.1944 70.5371 38.8889 69.5649 40.6111 68.4723C39 67.0278 37.3889 65.6945 35.8333 64C29.5814 57.8568 24.215 50.8731 19.8889 43.25C20.7576 42.3496 21.3416 41.2129 21.5676 39.9822C21.7936 38.7515 21.6516 37.4816 21.1594 36.3312C20.6672 35.1808 19.8467 34.2011 18.8005 33.5147C17.7544 32.8283 16.529 32.4657 15.2777 32.4723C13.1944 25.5278 13.5555 20 16.4722 17.0834C17.4994 16.1781 18.6964 15.4859 19.9935 15.0472C21.2905 14.6085 22.6618 14.432 24.0277 14.5278C27.7761 14.653 31.4724 15.4431 34.9444 16.8612C38.2955 18.1785 41.5292 19.7768 44.6111 21.6389C40.1053 24.936 35.8612 28.5765 31.9166 32.5278C30.6944 33.75 29.5 35.0278 28.3333 36.3056C29.1685 38.0661 30.0957 39.7814 31.1111 41.4445C32.6111 39.75 34.1389 38.0834 35.7777 36.4445C40.0511 32.1752 44.6994 28.2985 49.6666 24.8612C54.5795 28.3132 59.1805 32.1891 63.4166 36.4445C67.686 40.7178 71.5627 45.3661 75 50.3334C71.5545 55.2944 67.6784 59.942 63.4166 64.2223C55.3329 72.5479 45.635 79.136 34.9166 83.5834ZM82.75 83.3334L82.3055 83.6945C81.5761 83.0761 80.7155 82.6318 79.789 82.3951C78.8625 82.1584 77.8943 82.1355 76.9576 82.3282C76.021 82.5209 75.1404 82.9241 74.3826 83.5073C73.6247 84.0905 73.0094 84.8384 72.5833 85.6945C69.7281 85.3269 66.9292 84.6086 64.25 83.5556C60.8933 82.251 57.6584 80.6521 54.5833 78.7778C59.0891 75.4807 63.3332 71.8403 67.2777 67.8889C71.2363 63.961 74.8773 59.7255 78.1666 55.2223C80.0288 58.3041 81.6271 61.5378 82.9444 64.8889C86.1111 73.3056 86.1111 80.0278 82.75 83.3334Z" fill="#7E6C37"/>
</g>
<defs>
<clipPath id="clip0_204_476">
<rect width="100" height="100" fill="white"/>
</clipPath>
</defs>
</svg>
