<svg width="35" height="35" viewBox="0 0 35 35" fill="none" xmlns="http://www.w3.org/2000/svg">
<g clip-path="url(#clip0_204_419)">
<path fill-rule="evenodd" clip-rule="evenodd" d="M11.9525 4.6025C9.23035 5.77796 6.94823 7.78196 5.43083 10.3294H9.79927C10.142 8.81125 10.5941 7.41563 11.138 6.1899C11.3784 5.64538 11.6504 5.11535 11.9525 4.6025ZM3.46354 17.5C3.46354 16.4135 3.5875 15.3555 3.82083 14.3398H9.17729C9.08278 15.3905 9.03582 16.445 9.03656 17.5C9.03656 18.5763 9.08396 19.6328 9.17729 20.6588H3.8201C3.58233 19.6227 3.46272 18.563 3.46354 17.5ZM5.4301 24.6692C6.94745 27.2172 9.22987 29.2218 11.9525 30.3975C11.6504 29.8846 11.3784 29.3546 11.138 28.8101C10.5933 27.5844 10.142 26.188 9.79927 24.6692H5.4301ZM13.5523 24.6692C13.7876 25.5789 14.0945 26.4686 14.4703 27.3299C15.0092 28.5432 15.6034 29.4117 16.1722 29.9527C16.7307 30.485 17.1763 30.625 17.4993 30.625C17.8223 30.625 18.2685 30.485 18.8278 29.9527C19.3958 29.4117 19.9908 28.5432 20.5297 27.3299C20.8775 26.546 21.1874 25.6528 21.4477 24.6692H13.5523ZM25.2007 24.6692C24.858 26.188 24.4059 27.5844 23.8612 28.8101C23.6208 29.3546 23.3489 29.8846 23.0468 30.3975C25.7697 29.2219 28.0524 27.2174 29.5699 24.6692H25.2007ZM31.1799 20.6588H25.8227C25.9172 19.6085 25.9641 18.5545 25.9634 17.5C25.9634 16.423 25.9153 15.3665 25.8227 14.3398H31.1792C31.4125 15.3555 31.5365 16.4135 31.5365 17.5C31.5365 18.5865 31.4125 19.6438 31.1792 20.6588M22.1594 20.6588H12.8392C12.7338 19.6091 12.6815 18.5549 12.6824 17.5C12.6824 16.4063 12.7371 15.349 12.8399 14.3398H22.1594C22.2615 15.349 22.3169 16.407 22.3169 17.5C22.3169 18.593 22.2622 19.6496 22.1594 20.6588ZM25.2 10.3294H29.5684C28.0509 7.78185 25.7685 5.77783 23.046 4.6025C23.3421 5.10125 23.6133 5.63427 23.8605 6.1899C24.4052 7.4149 24.8566 8.81125 25.1993 10.3294M14.4689 7.6701C14.0931 8.53091 13.7862 9.42011 13.5508 10.3294H21.4455C21.2104 9.42013 20.9037 8.53093 20.5282 7.6701C19.9886 6.45677 19.3944 5.58833 18.8264 5.04729C18.2685 4.515 17.823 4.375 17.5 4.375C17.177 4.375 16.7307 4.515 16.1722 5.04729C15.6034 5.58833 15.0092 6.45677 14.4703 7.6701M17.5 0.546875C8.1375 0.546875 0.546875 8.1375 0.546875 17.5C0.546875 26.8625 8.1375 34.4531 17.5 34.4531C26.8625 34.4531 34.4531 26.8625 34.4531 17.5C34.4531 8.1375 26.8625 0.546875 17.5 0.546875Z" fill="#444446"/>
</g>
<defs>
<clipPath id="clip0_204_419">
<rect width="35" height="35" fill="white"/>
</clipPath>
</defs>
</svg>
