<svg width="40" height="40" viewBox="0 0 40 40" fill="none" xmlns="http://www.w3.org/2000/svg">
<path d="M31.6667 6.66675C32.5507 6.66675 33.3986 7.01794 34.0237 7.64306C34.6488 8.26818 35 9.11603 35 10.0001V30.0001C35 30.8841 34.6488 31.732 34.0237 32.3571C33.3986 32.9822 32.5507 33.3334 31.6667 33.3334H8.33333C7.44928 33.3334 6.60143 32.9822 5.97631 32.3571C5.35119 31.732 5 30.8841 5 30.0001V10.0001C5 9.11603 5.35119 8.26818 5.97631 7.64306C6.60143 7.01794 7.44928 6.66675 8.33333 6.66675H31.6667ZM31.6667 16.6667H8.33333V28.3334C8.33339 28.7416 8.48326 29.1356 8.75453 29.4407C9.02579 29.7458 9.39958 29.9407 9.805 29.9884L10 30.0001H30C30.4082 30 30.8022 29.8502 31.1073 29.5789C31.4123 29.3076 31.6072 28.9338 31.655 28.5284L31.6667 28.3334V16.6667ZM10 10.0001C9.55797 10.0001 9.13405 10.1757 8.82149 10.4882C8.50893 10.8008 8.33333 11.2247 8.33333 11.6667C8.33333 12.1088 8.50893 12.5327 8.82149 12.8453C9.13405 13.1578 9.55797 13.3334 10 13.3334C10.442 13.3334 10.866 13.1578 11.1785 12.8453C11.4911 12.5327 11.6667 12.1088 11.6667 11.6667C11.6667 11.2247 11.4911 10.8008 11.1785 10.4882C10.866 10.1757 10.442 10.0001 10 10.0001ZM15 10.0001C14.558 10.0001 14.134 10.1757 13.8215 10.4882C13.5089 10.8008 13.3333 11.2247 13.3333 11.6667C13.3333 12.1088 13.5089 12.5327 13.8215 12.8453C14.134 13.1578 14.558 13.3334 15 13.3334C15.442 13.3334 15.866 13.1578 16.1785 12.8453C16.4911 12.5327 16.6667 12.1088 16.6667 11.6667C16.6667 11.2247 16.4911 10.8008 16.1785 10.4882C15.866 10.1757 15.442 10.0001 15 10.0001ZM20 10.0001C19.558 10.0001 19.134 10.1757 18.8215 10.4882C18.5089 10.8008 18.3333 11.2247 18.3333 11.6667C18.3333 12.1088 18.5089 12.5327 18.8215 12.8453C19.134 13.1578 19.558 13.3334 20 13.3334C20.442 13.3334 20.8659 13.1578 21.1785 12.8453C21.4911 12.5327 21.6667 12.1088 21.6667 11.6667C21.6667 11.2247 21.4911 10.8008 21.1785 10.4882C20.8659 10.1757 20.442 10.0001 20 10.0001Z" fill="#353535"/>
</svg>
