<svg width="30" height="30" viewBox="0 0 30 30" fill="none" xmlns="http://www.w3.org/2000/svg">
<path d="M25.0487 14.6956L11.9299 28.7515C11.7909 28.8999 11.6074 28.999 11.4071 29.0339C11.2068 29.0689 11.0006 29.0377 10.8195 28.9451C10.6385 28.8526 10.4925 28.7036 10.4035 28.5208C10.3146 28.338 10.2875 28.1312 10.3264 27.9316L12.0435 19.3423L5.29321 16.8075C5.14824 16.7533 5.01895 16.664 4.91691 16.5476C4.81487 16.4313 4.74325 16.2914 4.70845 16.1406C4.67364 15.9898 4.67674 15.8327 4.71746 15.6833C4.75818 15.534 4.83526 15.3971 4.94181 15.2848L18.0606 1.22895C18.1996 1.08059 18.3832 0.981466 18.5835 0.946544C18.7838 0.911622 18.99 0.942795 19.171 1.03536C19.352 1.12792 19.498 1.27686 19.587 1.45968C19.676 1.64251 19.703 1.84931 19.6642 2.04888L17.9423 10.6476L24.6926 13.1788C24.8366 13.2334 24.9648 13.3226 25.066 13.4385C25.1673 13.5544 25.2384 13.6935 25.2732 13.8434C25.3079 13.9934 25.3052 14.1496 25.2652 14.2982C25.2252 14.4468 25.1493 14.5833 25.044 14.6956H25.0487Z" fill="#C9A646"/>
</svg>
