<svg width="120" height="39" viewBox="0 0 120 39" fill="none" xmlns="http://www.w3.org/2000/svg">
<g clip-path="url(#clip0_204_395)">
<path d="M116.262 23.8346L119.591 26.0328C118.511 27.609 115.927 30.3135 111.459 30.3135C105.911 30.3135 101.779 26.0618 101.779 20.6531C101.779 14.8976 105.954 10.9929 110.992 10.9929C116.058 10.9929 118.54 14.9842 119.343 17.1389L119.781 18.2381L106.728 23.5888C107.721 25.5267 109.269 26.51 111.459 26.51C113.649 26.51 115.167 25.4399 116.262 23.8346ZM106.028 20.3497L114.744 16.7631C114.262 15.5629 112.831 14.7098 111.123 14.7098C108.948 14.7098 105.925 16.6187 106.028 20.3497Z" fill="white"/>
<path d="M95.4861 1.14478H99.6908V29.4314H95.4861V1.14478Z" fill="white"/>
<path d="M88.8575 11.7448H92.9164V28.925C92.9164 36.0544 88.6676 38.99 83.645 38.99C78.9146 38.99 76.0676 35.8375 75.0017 33.2779L78.7247 31.7449C79.3962 33.3211 81.0169 35.1868 83.645 35.1868C86.8716 35.1868 88.8575 33.2055 88.8575 29.5035V28.1153H88.7114C87.7477 29.2721 85.9081 30.3132 83.5721 30.3132C78.6954 30.3132 74.2275 26.1049 74.2275 20.6821C74.2275 15.23 78.6954 10.9785 83.5721 10.9785C85.8936 10.9785 87.7477 12.0053 88.7114 13.1333H88.8575V11.7448ZM89.1493 20.6821C89.1493 17.2691 86.8571 14.7817 83.937 14.7817C80.9876 14.7817 78.5056 17.2691 78.5056 20.6821C78.5056 24.0514 80.9876 26.4954 83.937 26.4954C86.8573 26.51 89.1495 24.0514 89.1495 20.6821" fill="white"/>
<path d="M51.1444 20.6096C51.1444 26.1773 46.7644 30.2698 41.3913 30.2698C36.0185 30.2698 31.6383 26.1629 31.6383 20.6096C31.6383 15.0131 36.0185 10.9351 41.3913 10.9351C46.7644 10.9351 51.1444 15.0131 51.1444 20.6096ZM46.8811 20.6096C46.8811 17.1391 44.3405 14.7526 41.3913 14.7526C38.4422 14.7526 35.9016 17.1391 35.9016 20.6096C35.9016 24.0514 38.4422 26.4666 41.3913 26.4666C44.3407 26.4666 46.8811 24.0514 46.8811 20.6096Z" fill="white"/>
<path d="M72.4465 20.6531C72.4465 26.2208 68.0663 30.3132 62.6935 30.3132C57.3204 30.3132 52.9404 26.2206 52.9404 20.6531C52.9404 15.0566 57.3204 10.9929 62.6935 10.9929C68.0663 10.9929 72.4465 15.0422 72.4465 20.6531ZM68.1685 20.6531C68.1685 17.1825 65.6281 14.7961 62.6787 14.7961C59.7293 14.7961 57.1889 17.1825 57.1889 20.6531C57.1889 24.0948 59.7296 26.51 62.6787 26.51C65.6426 26.51 68.1685 24.0804 68.1685 20.6531Z" fill="white"/>
<path d="M15.607 26.0761C9.48931 26.0761 4.70057 21.1881 4.70057 15.1287C4.70057 9.06951 9.48931 4.18151 15.607 4.18151C18.9067 4.18151 21.3156 5.46851 23.0969 7.11719L26.0317 4.21053C23.5497 1.85335 20.2354 0.0598145 15.607 0.0598145C7.22642 0.0600466 0.174316 6.82817 0.174316 15.1287C0.174316 23.4292 7.22642 30.1975 15.607 30.1975C20.1332 30.1975 23.5497 28.7225 26.2216 25.9748C28.9663 23.256 29.8131 19.4382 29.8131 16.3435C29.8131 15.3745 29.6964 14.3768 29.5649 13.6392H15.607V17.6595H25.5499C25.2578 20.1759 24.4549 21.8968 23.2722 23.068C21.8413 24.4998 19.5785 26.0761 15.607 26.0761Z" fill="white"/>
</g>
<defs>
<clipPath id="clip0_204_395">
<rect width="120" height="39" fill="white"/>
</clipPath>
</defs>
</svg>
