<svg width="80" height="80" viewBox="0 0 80 80" fill="none" xmlns="http://www.w3.org/2000/svg">
<g clip-path="url(#clip0_204_385)">
<path d="M0 53.8175H15.56V56.04H0V53.8175ZM0 49.5425H15.56V51.77H0V49.5425ZM4.4275 45.2725H11.1075V47.5125H4.4275V45.2725ZM4.4275 41.0175H11.1075V43.2575H4.4275V41.0175ZM4.4275 36.7425H11.1075V38.9825H4.4275V36.7425ZM4.4275 32.4725H11.1075V34.7125H4.4275V32.4725ZM0 28.2175H15.56V30.4575H0V28.2175ZM0 23.96H15.56V26.1825H0V23.96ZM17.7725 51.77H41.6925C42.095 51.08 42.41 50.3275 42.59 49.5425H17.7725V51.77ZM39.83 41.0175H22.2275V43.2575H41.7075C41.2124 42.4146 40.5834 41.658 39.845 41.0175H39.83ZM22.2125 36.7425V38.9825H39.83C40.5875 38.36 41.1975 37.6025 41.7075 36.7425H22.2125ZM41.6925 28.2175H17.7725V30.4575H42.575C42.3825 29.6746 42.0857 28.9212 41.6925 28.2175ZM34.35 23.96H17.7725V26.1825H40.0525C38.4975 24.753 36.4622 23.9598 34.35 23.96ZM22.2125 32.4725H28.88V34.7125H22.2125V32.4725ZM35.56 34.7125H42.5275C42.7268 33.9825 42.8277 33.2292 42.8275 32.4725H35.56V34.7125ZM22.2125 45.2725H28.88V47.5125H22.2125V45.2725ZM35.56 45.2725V47.5125H42.8275C42.8275 46.7425 42.72 45.99 42.5275 45.2725H35.56ZM17.7725 56.03L34.335 56.04C36.5625 56.04 38.565 55.1975 40.065 53.8175H17.7725V56.03ZM44.4525 53.8175H55.545V56.04H44.4525V53.8175ZM44.4525 49.5425H55.545V51.77H44.4525V49.5425ZM48.88 45.2725H55.5475V47.5125H48.88V45.2725ZM48.88 41.0175H55.5475V43.2575H48.88V41.0175ZM58.6475 28.2175H44.455V30.4575H59.415L58.6475 28.2175ZM57.1725 23.96H44.4525V26.1825H57.9425L57.1725 23.96ZM68.88 53.8175H80V56.04H68.88V53.8175ZM68.88 49.5425H80V51.77H68.88V49.5425ZM68.88 45.2725H75.5475V47.5125H68.88V45.2725ZM68.88 41.0175H75.5475V43.2575H68.88V41.0175ZM68.88 38.9825H75.5475V36.7425H62.85L62.2125 38.5525L61.59 36.7425H48.88V38.9825H55.5475V36.925L56.265 38.9825H68.1775L68.88 36.925V38.9825ZM75.5475 32.4725H64.325L63.555 34.7125H75.5475V32.4725ZM67.28 23.96L66.51 26.1825H80V23.96H67.28ZM62.2125 56.03L62.9825 53.8175H61.445L62.2125 56.03ZM60.7425 51.77H63.695L64.4925 49.5425H59.96L60.7425 51.77ZM59.2425 47.5125H65.195L65.975 45.2725H58.4625L59.2425 47.5125ZM57.76 43.2575H66.6925L67.445 41.0175H56.9925L57.76 43.2575ZM48.88 34.7125H60.8875L60.1175 32.4725H48.88V34.7125ZM65.04 30.4575H80V28.2175H65.7925L65.04 30.4575Z" fill="white"/>
</g>
<defs>
<clipPath id="clip0_204_385">
<rect width="80" height="80" fill="white"/>
</clipPath>
</defs>
</svg>
