<svg width="180" height="39" viewBox="0 0 180 39" fill="none" xmlns="http://www.w3.org/2000/svg">
<g clip-path="url(#clip0_204_389)">
<path d="M180 17.5318V14.3391H176.069V9.37621L175.937 9.41698L172.244 10.5565L172.172 10.5788V14.3391H166.344V12.2445C166.344 11.2691 166.56 10.5225 166.987 10.025C167.41 9.53292 168.015 9.28296 168.787 9.28296C169.343 9.28296 169.917 9.41485 170.496 9.67474L170.641 9.73997V6.37817L170.572 6.35335C170.033 6.15729 169.299 6.05908 168.389 6.05908C167.242 6.05908 166.201 6.31045 165.292 6.8093C164.383 7.30815 163.668 8.02149 163.167 8.92806C162.668 9.83357 162.414 10.8791 162.414 12.0364V14.3395H159.677V17.5322H162.414V30.9811H166.344V17.5318H172.172V26.0785C172.172 29.5984 173.818 31.3825 177.065 31.3825C177.626 31.3792 178.185 31.3164 178.733 31.1953C179.317 31.0687 179.714 30.9421 179.948 30.8071L180 30.7762V27.5541L179.84 27.6608C179.627 27.8044 179.362 27.9214 179.05 28.0083C178.737 28.0969 178.476 28.1416 178.274 28.1416C177.513 28.1416 176.951 27.9349 176.601 27.5268C176.248 27.1155 176.069 26.3955 176.069 25.3885V17.5318H180ZM150.902 28.1419C149.476 28.1419 148.351 27.6647 147.558 26.7255C146.762 25.781 146.357 24.4352 146.357 22.7245C146.357 20.9599 146.762 19.579 147.559 18.6178C148.352 17.6634 149.466 17.1787 150.87 17.1787C152.232 17.1787 153.317 17.6414 154.094 18.555C154.875 19.473 155.271 20.8429 155.271 22.6281C155.271 24.4352 154.898 25.8236 154.163 26.7521C153.434 27.6739 152.337 28.1419 150.902 28.1419ZM151.077 13.9381C148.356 13.9381 146.194 14.7423 144.654 16.3281C143.114 17.9144 142.333 20.109 142.333 22.8525C142.333 25.458 143.095 27.5538 144.598 29.0808C146.102 30.6078 148.148 31.3818 150.679 31.3818C153.316 31.3818 155.435 30.5667 156.975 28.9588C158.515 27.3527 159.295 25.1787 159.295 22.499C159.295 19.853 158.563 17.7417 157.119 16.225C155.673 14.7075 153.64 13.9381 151.077 13.9381ZM135.997 13.9381C134.146 13.9381 132.615 14.4157 131.445 15.357C130.269 16.304 129.672 17.5464 129.672 19.0493C129.672 19.8303 129.801 20.5242 130.055 21.1127C130.309 21.7034 130.704 22.2232 131.229 22.6596C131.749 23.0925 132.552 23.546 133.617 24.0069C134.512 24.3784 135.18 24.6929 135.604 24.9404C136.018 25.1833 136.312 25.4272 136.478 25.6647C136.64 25.897 136.722 26.2153 136.722 26.6078C136.722 27.7261 135.892 28.2699 134.183 28.2699C133.549 28.2699 132.827 28.1366 132.035 27.8736C131.249 27.6142 130.507 27.2348 129.835 26.7486L129.672 26.6309V30.4458L129.732 30.4741C130.288 30.733 130.989 30.951 131.815 31.123C132.64 31.2946 133.389 31.3821 134.04 31.3821C136.048 31.3821 137.666 30.9024 138.846 29.9554C140.034 29.0017 140.636 27.7307 140.636 26.1753C140.636 25.0539 140.312 24.0916 139.673 23.3159C139.039 22.5465 137.938 21.8399 136.402 21.2155C135.179 20.7202 134.395 20.3093 134.072 19.9938C133.76 19.6889 133.601 19.2577 133.601 18.7121C133.601 18.2278 133.797 17.8403 134.198 17.5261C134.602 17.2106 135.165 17.05 135.87 17.05C136.525 17.05 137.195 17.1542 137.861 17.3584C138.527 17.563 139.111 17.8371 139.599 18.1718L139.76 18.2824V14.6632L139.698 14.6366C139.248 14.4416 138.654 14.275 137.933 14.1402C137.215 14.0062 136.563 13.9381 135.997 13.9381ZM119.428 28.1419C118.002 28.1419 116.877 27.6647 116.085 26.7255C115.288 25.781 114.884 24.4352 114.884 22.7245C114.884 20.9599 115.288 19.579 116.086 18.6178C116.878 17.6634 117.991 17.1787 119.396 17.1787C120.759 17.1787 121.843 17.6414 122.62 18.555C123.401 19.473 123.797 20.8429 123.797 22.6281C123.797 24.4352 123.424 25.8236 122.69 26.7521C121.96 27.6739 120.863 28.1419 119.428 28.1419ZM119.603 13.9381C116.881 13.9381 114.72 14.7423 113.18 16.3281C111.64 17.9144 110.859 20.109 110.859 22.8525C110.859 25.4591 111.622 27.5538 113.125 29.0808C114.628 30.6078 116.674 31.3818 119.205 31.3818C121.842 31.3818 123.961 30.5667 125.502 28.9588C127.041 27.3527 127.822 25.1787 127.822 22.499C127.822 19.853 127.089 17.7417 125.645 16.225C124.199 14.7075 122.166 13.9381 119.603 13.9381ZM104.894 17.2212V14.3391H101.012V30.9804H104.894V22.4674C104.894 21.0198 105.219 19.8307 105.861 18.9326C106.495 18.0452 107.34 17.5953 108.372 17.5953C108.721 17.5953 109.114 17.6534 109.539 17.7687C109.96 17.8828 110.264 18.0069 110.444 18.1374L110.607 18.2569V14.3108L110.544 14.2835C110.183 14.1285 109.671 14.0505 109.024 14.0505C108.049 14.0505 107.176 14.3664 106.428 14.9887C105.772 15.5357 105.298 16.2859 104.935 17.2212H104.894ZM94.0612 13.9381C92.2806 13.9381 90.6919 14.3235 89.3408 15.0826C87.9873 15.8431 86.94 16.9298 86.2277 18.3108C85.5186 19.6889 85.1586 21.2985 85.1586 23.0936C85.1586 24.6656 85.5077 26.1086 86.1975 27.38C86.888 28.6539 87.8653 29.6505 89.1021 30.3419C90.3375 31.0322 91.7652 31.3821 93.3454 31.3821C95.1901 31.3821 96.7651 31.0102 98.0283 30.277L98.0789 30.2472V26.661L97.9161 26.7812C97.335 27.2057 96.6951 27.5416 96.017 27.7782C95.3307 28.0196 94.7056 28.1416 94.1572 28.1416C92.6339 28.1416 91.4115 27.6612 90.5238 26.7138C89.6344 25.7647 89.1833 24.4327 89.1833 22.756C89.1833 21.0691 89.6537 19.7027 90.5804 18.694C91.5047 17.6889 92.7295 17.179 94.2212 17.179C95.497 17.179 96.7401 17.6148 97.9161 18.4753L98.0789 18.5944V14.8156L98.0265 14.7859C97.5835 14.5359 96.9803 14.3296 96.2307 14.1732C95.4847 14.0172 94.7549 13.9381 94.0612 13.9381ZM82.4853 14.3391H78.6034V30.9804H82.4853V14.3391ZM80.5841 7.25C79.9453 7.25 79.3881 7.46946 78.9303 7.90378C78.4705 8.33987 78.2371 8.88871 78.2371 9.53611C78.2371 10.1736 78.4677 10.7121 78.9226 11.1365C79.3751 11.5595 79.934 11.774 80.5841 11.774C81.2338 11.774 81.7949 11.5595 82.2526 11.1372C82.7131 10.7121 82.9469 10.1736 82.9469 9.53611C82.9469 8.9114 82.7195 8.36788 82.2716 7.92151C81.824 7.47585 81.2559 7.25 80.5841 7.25ZM70.8992 13.1117V30.9801H74.8606V7.75948H69.378L62.409 25.0071L55.6464 7.75948H49.9405V30.9804H53.6632V13.1099H53.7912L60.9324 30.9804H63.7414L70.7713 13.1113L70.8992 13.1117Z" fill="white"/>
<path d="M18.2598 18.4147H0V0H18.2598V18.4147Z" fill="white"/>
<path d="M38.4212 18.4147H20.1614V0H38.4212V18.4147Z" fill="white"/>
<path d="M18.2595 38.7543H0V20.3396H18.2595V38.7543Z" fill="white"/>
<path d="M38.4212 38.7543H20.1614V20.3396H38.4212V38.7543Z" fill="white"/>
</g>
<defs>
<clipPath id="clip0_204_389">
<rect width="180" height="39" fill="white"/>
</clipPath>
</defs>
</svg>
