<svg width="90" height="90" viewBox="0 0 90 90" fill="none" xmlns="http://www.w3.org/2000/svg">
<path d="M18.5175 25.3408C14.6925 25.3408 10.8113 26.8314 10.1644 27.6471C9.99563 27.9846 9.60188 30.7127 10.53 30.7127C10.8394 30.7127 10.98 30.7689 11.88 30.3471C15.255 29.0252 17.3925 29.0533 17.7019 29.0533C21.4988 28.6877 23.6925 31.2752 23.355 34.6221V36.5908C20.1488 35.8314 18.3206 35.8033 17.4206 35.8033C12.7519 35.5221 8.4375 37.9858 8.4375 43.3971C8.4375 49.3314 13.7334 50.5971 15.7866 50.5127C18.8522 50.5408 21.7772 49.1627 23.7178 46.7721C25.2647 50.2314 26.2491 50.0064 26.2772 50.0064C26.5584 50.0064 26.7834 49.8939 27.0084 49.7533L28.6116 48.6283C28.8928 48.4596 29.1178 48.1783 29.1459 47.8408C29.1178 47.0252 27.6553 45.7596 27.7678 42.9189V34.1439C27.8555 32.9479 27.7018 31.7464 27.3157 30.6109C26.9297 29.4755 26.3192 28.4293 25.5206 27.5346C23.5679 25.9065 21.0501 25.1178 18.5175 25.3408ZM73.0041 25.3408C67.3791 25.3408 64.1447 28.8564 64.2291 32.4283C64.2291 37.3221 69.1791 38.8689 69.7416 39.0377C74.4947 40.5283 75.1416 40.5846 76.4634 41.7096C77.5884 42.8627 77.4478 45.1127 75.7884 46.0971C75.3103 46.3783 73.2572 47.6158 68.6166 46.6596C67.0697 46.3502 66.2541 45.9846 64.9884 45.4502C64.6509 45.3377 63.8634 45.1408 63.8634 46.1814V47.5596C63.8634 48.2064 64.2572 48.7971 64.8478 49.0783C67.8009 50.5689 71.3447 50.6252 72.1041 50.6252C72.2166 50.6252 78.6853 50.628 80.8509 46.2658C81.2953 45.3658 82.4541 42.0752 80.2884 39.2627C78.4884 37.1533 76.9416 36.9283 72.3291 35.5221C71.9353 35.4096 68.5322 34.5377 68.5603 32.1471C68.3916 29.0814 72.5541 28.9127 73.4259 28.9689C76.9416 28.9127 78.6853 30.2346 79.6416 30.3189C80.0634 30.3189 80.2603 30.0658 80.2603 29.5033V28.2096C80.2747 27.8989 80.1856 27.5923 80.0072 27.3377C78.8822 25.8752 74.5791 25.3408 73.0041 25.3408ZM30.3103 26.0439C30.0009 26.1002 29.7759 26.4096 29.8322 26.7189C29.8884 27.0846 29.9447 27.4502 30.0853 27.8158L36.3853 48.6002C36.5259 49.2752 36.9759 50.0064 37.9603 49.8939H40.2666C41.6728 50.0346 41.8697 48.6846 41.8978 48.5439L46.0322 31.2189L50.2228 48.5721C50.2509 48.7127 50.4478 50.0627 51.8259 49.9221H54.1603C55.1728 50.0346 55.6509 49.3033 55.7916 48.6283C62.8791 25.8189 62.4009 27.3658 62.4572 27.1408C62.5697 25.9596 61.8947 26.0439 61.7822 26.0721H59.2791C58.0134 25.9314 57.7603 27.0846 57.7041 27.3658L53.0353 45.3939L48.8166 27.3658C48.6197 25.9877 47.4947 26.0439 47.2134 26.0721H45.0478C43.8103 25.9596 43.5009 26.9439 43.4166 27.3658L39.2259 45.1408L34.7259 27.3658C34.6134 26.8033 34.2478 25.9314 33.1509 26.0439H30.3103ZM18.3459 39.0658C20.3709 39.0939 22.1203 39.4033 23.3297 39.6846C23.3297 41.0908 23.3803 41.8783 23.0709 43.1439C22.6772 44.4939 20.9363 46.9408 16.83 46.9971C14.4675 47.1096 12.9206 45.2533 13.0613 43.1439C12.9206 39.7689 16.4081 38.9252 18.3488 39.0658H18.3459ZM81.6778 56.2558C79.0538 56.2924 75.9544 56.8802 73.6031 58.5311C72.8775 59.0346 73.0041 59.7321 73.8113 59.6392C76.455 59.3214 82.3388 58.6071 83.3906 59.9514C84.4425 61.2958 82.2262 66.8421 81.2447 69.3227C80.9409 70.0624 81.5822 70.3689 82.26 69.8064C86.6588 66.1221 87.8006 58.3989 86.9006 57.2908C86.4506 56.7339 84.3019 56.2192 81.6778 56.2558ZM3.42281 59.0683C2.80969 59.1527 2.54531 59.9289 3.18656 60.5449C14.2031 70.878 28.7606 75.9377 44.9241 75.9377C56.4525 75.9377 69.8344 72.1774 79.0734 65.0899C80.6006 63.9086 79.2984 62.1452 77.7347 62.8399C67.3763 67.413 56.1234 69.6152 45.8831 69.6152C30.7069 69.6152 16.0144 66.4455 4.13156 59.2483C3.92195 59.1111 3.67252 59.0477 3.42281 59.0683Z" fill="white"/>
</svg>
