<svg width="80" height="80" viewBox="0 0 80 80" fill="none" xmlns="http://www.w3.org/2000/svg">
<g clip-path="url(#clip0_204_387)">
<path d="M0 20.2075V59.795H40.43L80 20.2075H0ZM10.8875 27.5775H10.9C13.7775 27.5775 17.28 28.3875 19.8175 29.6875L17.085 34.455C14.2975 33.1025 12.905 32.985 11.3175 32.8925C8.96 32.7625 7.775 33.61 7.7475 34.52C7.735 35.63 9.9875 36.63 12.11 37.32C15.3125 38.3375 19.4 39.7025 20.0275 43.65L25.9 28.13H32.72L39.5975 46.71L39.57 28.13H47.4725C55 28.13 58.54 30.68 58.54 36.5275C58.54 41.775 54.91 44.915 48.75 44.915H46.21L46.1725 51.8925L34.22 51.88L33.3875 48.8475C32.0631 49.2793 30.678 49.4954 29.285 49.4875C27.8526 49.4961 26.4283 49.2724 25.0675 48.825L23.88 51.8825L17.2125 51.895L17.5125 50.3575C17.4158 50.4447 17.3157 50.5281 17.2125 50.6075C15.4425 52.0375 13.19 52.705 10.43 52.755H9.7125C6.69957 52.79 3.73237 52.0165 1.12 50.515L3.5525 45.685C6.1825 47.2475 7.84 47.585 10.065 47.5475C11.2225 47.52 12.055 47.31 12.6025 46.75C12.9277 46.419 13.1145 45.9764 13.125 45.5125C13.1475 44.2625 11.3525 43.68 9.1775 43C7.4075 42.4525 5.3875 41.7 3.825 40.54C1.965 39.1875 1.065 37.4675 1.1175 35.0475C1.13011 33.3334 1.80667 31.6908 3.005 30.465C4.7375 28.6675 7.525 27.585 10.885 27.585L10.8875 27.5775ZM46.1975 33.1375V39.495H47.945C50.2475 39.495 52.0975 38.725 52.0975 36.2775C52.0975 33.9075 50.2475 33.1375 47.945 33.1375H46.1975ZM29.2425 35.7025L26.755 43.565C27.5583 43.8652 28.41 44.0152 29.2675 44.0075C30.1675 44.0075 31.015 43.85 31.74 43.59L29.2925 35.6875L29.2425 35.7025Z" fill="white"/>
</g>
<defs>
<clipPath id="clip0_204_387">
<rect width="80" height="80" fill="white"/>
</clipPath>
</defs>
</svg>
