<svg width="180" height="41" viewBox="0 0 180 41" fill="none" xmlns="http://www.w3.org/2000/svg">
<g clip-path="url(#clip0_204_383)">
<path d="M111.345 12.7945L111.34 12.7909C111.34 12.7909 111.337 12.7892 111.334 12.7892C111.212 12.7364 111.081 12.7089 110.949 12.7082C110.742 12.7107 110.54 12.7702 110.365 12.8804C110.181 12.9942 110.036 13.1621 109.95 13.3614V13.3664L105.877 24.4738L102.737 17.0288L102.733 17.0256C102.645 16.8174 102.486 16.6566 102.307 16.5449C102.124 16.431 101.913 16.3707 101.697 16.3707C101.483 16.3707 101.284 16.4375 101.108 16.5463C100.935 16.658 100.779 16.8174 100.691 17.0256L100.689 17.0291L97.5431 24.4788L93.4481 13.3762H93.4446C93.3749 13.172 93.2373 12.9982 93.0551 12.8839C92.8774 12.7707 92.6717 12.7098 92.4613 12.7082C92.3236 12.7086 92.1873 12.7361 92.0602 12.7892H92.0538L92.0493 12.7945C91.8648 12.8801 91.7086 13.0172 91.5993 13.1894C91.49 13.3617 91.4321 13.5618 91.4326 13.7661C91.4329 13.8964 91.4583 14.0258 91.5089 14.1542H91.5075L96.545 27.6312V27.6358C96.5841 27.7361 96.6393 27.8358 96.7208 27.9334C96.7799 28.003 96.8667 28.0617 96.956 28.1104C97.0195 28.1731 97.1011 28.2139 97.1891 28.2271C97.2788 28.2571 97.3979 28.3002 97.5575 28.3002C97.7614 28.3002 97.9506 28.2271 98.12 28.1186C98.2916 28.006 98.424 27.8424 98.4987 27.6506L98.5117 27.6407L101.697 20.0539L104.887 27.61H104.89C104.964 27.8114 105.093 27.9691 105.242 28.0811C105.401 28.1995 105.578 28.2727 105.766 28.3002H105.9C106.027 28.3002 106.151 28.2762 106.255 28.2356C106.352 28.1975 106.443 28.1461 106.526 28.0829C106.696 27.9509 106.829 27.7757 106.911 27.5753V27.5711L111.916 14.1542C111.966 14.026 111.99 13.8973 111.991 13.7682C111.989 13.5603 111.928 13.3572 111.813 13.1841C111.698 13.0111 111.536 12.8756 111.345 12.7945ZM88.3174 20.4883C88.3174 18.9056 87.7075 17.4724 86.7375 16.4375C85.7619 15.4004 84.4407 14.7667 83.006 14.7667C81.5706 14.7667 80.2462 15.4004 79.2728 16.4375C78.3007 17.4724 77.6907 18.9056 77.6907 20.488C77.6907 22.0693 78.3007 23.4891 79.2728 24.5173C80.2466 25.5494 81.5706 26.1735 83.006 26.1735C84.4407 26.1735 85.7665 25.5497 86.7375 24.5176C87.7078 23.4891 88.3174 22.0693 88.3174 20.4883ZM88.2896 14.9943C89.6368 16.4177 90.4553 18.3708 90.4588 20.4883C90.4553 22.6055 89.6368 24.5565 88.2896 25.9802C86.9526 27.4018 85.0852 28.3006 83.0092 28.3006C80.949 28.3006 79.0787 27.4018 77.7368 25.9802C76.3394 24.4963 75.5607 22.5305 75.5607 20.4871C75.5607 18.4437 76.3394 16.4779 77.7368 14.994C79.0787 13.5742 80.949 12.6754 83.0092 12.6754C85.0852 12.6754 86.9526 13.5745 88.2896 14.9943ZM67.0806 12.7029C65.4107 12.7029 63.8859 13.3515 62.7476 14.3864V13.7679C62.748 13.491 62.6428 13.2244 62.4537 13.0232C62.3578 12.9223 62.2427 12.842 62.1153 12.7869C61.9878 12.7319 61.8506 12.7033 61.7119 12.7029C61.5692 12.7017 61.4277 12.7292 61.2958 12.7839C61.1639 12.8385 61.0441 12.9191 60.9437 13.021C60.7509 13.2213 60.6433 13.4892 60.6438 13.7679V27.5577L60.6878 27.6015L60.6895 27.6082C60.7008 27.6538 60.73 27.7036 60.7609 27.7524C60.909 28.0128 61.1525 28.2046 61.4394 28.2868L61.4816 28.3002H61.7119C61.8651 28.3002 62.0198 28.2677 62.1668 28.1992C62.2891 28.1408 62.403 28.0468 62.4944 27.9263L62.498 27.9281C62.5092 27.9168 62.5127 27.9019 62.5257 27.891C62.5308 27.8882 62.5352 27.8842 62.5384 27.8793C62.5953 27.8061 62.6432 27.7315 62.6723 27.6616C62.6981 27.5892 62.7199 27.5154 62.7377 27.4407L62.7476 27.4014V19.1215C62.775 17.9786 63.2427 16.8909 64.0522 16.0879C64.8556 15.281 65.945 14.828 67.0806 14.8286C68.2812 14.8286 69.352 15.31 70.1286 16.0879C70.5265 16.4829 70.8421 16.9536 71.0571 17.4725C71.2721 17.9914 71.3822 18.5481 71.3809 19.1102V27.2413C71.3809 27.5382 71.5082 27.8132 71.7008 28.0012C71.9031 28.193 72.1706 28.2998 72.4486 28.2998C72.7266 28.2998 72.9941 28.193 73.1964 28.0012C73.395 27.8132 73.5159 27.5382 73.5159 27.2413V19.1102C73.5159 15.6005 70.6391 12.7082 67.0806 12.7033M172.21 18.9802C171.603 16.5283 169.442 14.7812 166.977 14.7865C164.449 14.7865 162.317 16.4958 161.657 18.9802H172.21ZM174.547 19.9847V20.09C174.547 20.3841 174.415 20.6492 174.214 20.8231C174.015 20.9984 173.756 21.0895 173.477 21.0927H161.509C161.813 24.0023 164.145 26.1513 166.929 26.1735H167.635C168.556 26.1767 169.454 25.8597 170.243 25.3352C171.034 24.8156 171.717 24.0889 172.198 23.2894C172.292 23.1276 172.429 22.9957 172.594 22.9091C172.748 22.826 172.919 22.783 173.094 22.784C173.283 22.784 173.47 22.8328 173.635 22.9317L173.647 22.9367L173.66 22.9466C173.96 23.1657 174.148 23.5008 174.148 23.868C174.148 24.0546 174.099 24.2451 173.996 24.4169L173.992 24.424L173.989 24.4268C173.32 25.4864 172.409 26.4531 171.326 27.1537C170.241 27.8553 168.984 28.3006 167.635 28.3006H166.918C164.817 28.2858 162.919 27.4018 161.551 25.9883C160.133 24.5245 159.341 22.561 159.344 20.5177C159.344 18.3546 160.192 16.3919 161.569 14.9717C162.945 13.5533 164.858 12.6757 166.977 12.6757C168.999 12.6757 170.816 13.4766 172.161 14.7883C173.507 16.0996 174.386 17.9205 174.542 19.9698L174.547 19.9847ZM125.453 6.25745C125.162 6.25745 124.894 6.37939 124.702 6.57096C124.603 6.66865 124.524 6.78521 124.47 6.91385C124.416 7.04248 124.388 7.18064 124.387 7.32027V27.2413C124.387 27.5319 124.509 27.7984 124.702 27.9871C124.903 28.1852 125.172 28.2975 125.453 28.3006C126.058 28.3006 126.548 27.8259 126.551 27.2413V7.31991C126.548 6.73319 126.058 6.25709 125.453 6.25709M55.7086 20.1077C54.8473 19.7033 53.8706 19.4043 52.8957 19.0827C51.9985 18.7805 51.0884 18.5235 50.439 18.1856C50.1131 18.0117 49.8589 17.8283 49.6941 17.6219C49.526 17.4158 49.4444 17.2059 49.4395 16.9199C49.4413 16.5283 49.5555 16.213 49.7478 15.9338C50.0396 15.516 50.529 15.1909 51.0637 14.9809C51.5921 14.7706 52.1648 14.6713 52.5741 14.6713C53.7841 14.673 54.5491 15.0742 55.1362 15.4899C55.4263 15.6998 55.6713 15.9122 55.9026 16.0879C56.0218 16.1791 56.1326 16.2618 56.2616 16.3233C56.3836 16.3834 56.5274 16.4325 56.6838 16.4325C56.7833 16.4325 56.8832 16.4145 56.9739 16.376C57.0702 16.3371 57.1535 16.2812 57.2337 16.2134C57.313 16.1397 57.3782 16.052 57.426 15.9547C57.4671 15.8577 57.4881 15.7533 57.4878 15.6479C57.4878 15.4591 57.4274 15.282 57.3409 15.1159C57.1795 14.8236 56.9313 14.5444 56.6153 14.2648C56.1456 13.8488 55.5261 13.4522 54.8589 13.1536C54.1898 12.8546 53.4727 12.6513 52.7892 12.6513C51.2058 12.6513 49.8832 13.0087 48.9224 13.6671C48.4218 14.0114 47.9816 14.3882 47.6701 14.9084C47.3537 15.4298 47.1776 16.0734 47.1547 16.91C47.1535 16.9477 47.1531 16.9851 47.1533 17.0221C47.1498 17.835 47.4124 18.5044 47.8248 19.0289C48.4513 19.8189 49.3812 20.2915 50.2928 20.6265C51.2026 20.9609 52.1125 21.1609 52.6869 21.3525C53.4955 21.6204 54.3551 21.9113 54.9812 22.2962C55.293 22.4931 55.5455 22.7045 55.717 22.9367C55.8833 23.1756 55.9772 23.4223 55.981 23.7348V23.7577C55.9793 24.2091 55.846 24.5636 55.6256 24.8672C55.293 25.3189 54.7397 25.6501 54.1526 25.8597C53.5676 26.0647 52.959 26.1513 52.5674 26.1513C51.1861 26.1513 50.2618 25.819 49.5914 25.4868C49.2553 25.3189 48.9832 25.1531 48.7368 25.0132C48.6211 24.9475 48.5019 24.8885 48.3796 24.8365C48.258 24.784 48.1272 24.7567 47.995 24.7562C47.9034 24.7556 47.8126 24.7722 47.7271 24.805C47.6405 24.8419 47.5611 24.8937 47.4922 24.958C47.3983 25.0459 47.3201 25.1493 47.2609 25.2638C47.2059 25.3771 47.1774 25.5017 47.1776 25.6278C47.1776 25.8357 47.2556 26.0258 47.3671 26.1979C47.5414 26.4464 47.7974 26.6691 48.1169 26.8918C48.4464 27.1109 48.8398 27.3272 49.2929 27.5403C50.2977 28.0129 51.5858 28.26 52.5646 28.2762H52.5674C54.0896 28.2762 55.4034 27.9267 56.5109 27.1144V27.1123H56.5126C57.5954 26.3001 58.269 25.0927 58.269 23.7298C58.269 22.9805 58.0929 22.3454 57.7849 21.8254C57.3201 21.0372 56.565 20.5177 55.7086 20.1077ZM141.537 20.4883C141.537 18.8907 140.932 17.4593 139.965 16.4262C138.999 15.3959 137.673 14.7706 136.223 14.7671C134.785 14.7671 133.464 15.3959 132.489 16.4262C131.52 17.4593 130.907 18.8907 130.907 20.4883C130.907 22.0838 131.52 23.5061 132.489 24.5307C133.459 25.5561 134.785 26.1735 136.223 26.1735C137.676 26.1735 139.002 25.5561 139.968 24.5343C140.932 23.5057 141.537 22.0852 141.537 20.4883ZM143.35 12.9716C143.452 13.0705 143.532 13.1889 143.587 13.3198C143.642 13.4506 143.67 13.5912 143.67 13.7332V27.2413C143.668 27.5217 143.556 27.7899 143.357 27.9871C143.156 28.1854 142.887 28.2978 142.605 28.3006C142.312 28.3006 142.042 28.1751 141.853 27.9871C141.754 27.8902 141.675 27.7743 141.62 27.6463C141.566 27.5182 141.538 27.3805 141.537 27.2413V25.9233C140.194 27.3679 138.31 28.3006 136.223 28.3006C134.147 28.3006 132.279 27.4117 130.939 25.9883C129.596 24.5717 128.774 22.62 128.774 20.4883C128.774 18.3567 129.596 16.4032 130.939 14.9851C132.279 13.5629 134.147 12.6757 136.223 12.6757C138.308 12.6757 140.194 13.5812 141.537 15.0187V13.7332C141.537 13.4363 141.659 13.1617 141.857 12.9716C142.059 12.7805 142.327 12.6747 142.605 12.6757C142.887 12.6757 143.156 12.7846 143.35 12.9716ZM158.408 14.3412C158.62 14.1316 158.736 13.8534 158.736 13.5777C158.735 13.4382 158.705 13.3004 158.649 13.1731C158.592 13.0457 158.51 12.9316 158.407 12.8379H158.408C158.407 12.8316 158.401 12.8316 158.401 12.8316C158.4 12.8266 158.397 12.8249 158.397 12.8249H158.394C158.197 12.6272 157.93 12.5153 157.652 12.5131C157.376 12.5131 157.107 12.6273 156.902 12.8316L148.563 20.9287V7.31991C148.563 6.73319 148.07 6.25709 147.465 6.25709C147.174 6.25709 146.906 6.37903 146.715 6.5706C146.526 6.76111 146.399 7.02902 146.399 7.31991V27.241C146.399 27.5315 146.526 27.798 146.715 27.9867C146.915 28.1853 147.184 28.2978 147.465 28.3002C148.07 28.3002 148.563 27.8256 148.563 27.241V23.9539L151.278 21.2514L156.814 27.9054C156.918 28.0581 157.06 28.1635 157.2 28.219C157.36 28.279 157.515 28.3002 157.653 28.3002C157.844 28.3002 158.113 28.2596 158.35 28.074L158.363 28.0663L158.377 28.0514C158.599 27.8337 158.724 27.5446 158.724 27.2491C158.724 27.0003 158.632 26.7468 158.461 26.544V26.5404L152.826 19.7157L158.404 14.3408L158.408 14.3412ZM121.054 6.30481H120.816C120.784 6.30481 120.754 6.30799 120.721 6.30905C120.691 6.30799 120.66 6.30481 120.63 6.30481C120.015 6.30481 119.418 6.37444 118.86 6.55929C118.31 6.74167 117.803 7.04246 117.41 7.49876L117.409 7.49699L117.407 7.49876V7.50053C117.001 7.95046 116.733 8.48841 116.57 9.09953C116.407 9.71382 116.34 10.4059 116.334 11.1919V12.7153H114.649C114.064 12.7181 113.599 13.1843 113.599 13.7484C113.596 14.0404 113.706 14.3221 113.907 14.5331C114.107 14.7385 114.376 14.8614 114.662 14.8777H116.334V27.2671L116.332 27.2961C116.332 27.587 116.454 27.8549 116.652 28.0472C116.847 28.2356 117.122 28.3476 117.42 28.3476C117.696 28.3457 117.96 28.234 118.154 28.0369C118.348 27.8398 118.456 27.5734 118.455 27.2961V14.8777H120.267C120.551 14.8639 120.82 14.7445 121.021 14.5426C121.218 14.3465 121.339 14.0704 121.339 13.7711V13.7308C121.332 13.173 120.864 12.7149 120.279 12.7149H118.455V11.1987C118.467 10.5278 118.537 10.0256 118.638 9.66009C118.736 9.29251 118.87 9.06206 118.99 8.91927C119.108 8.79238 119.261 8.6867 119.511 8.60187C119.762 8.52093 120.109 8.46897 120.579 8.46897H120.634C120.662 8.46897 120.691 8.46403 120.717 8.46403C120.75 8.46403 120.781 8.46897 120.816 8.46897H121.054C121.655 8.46897 122.14 7.98475 122.14 7.38671C122.14 6.78868 121.655 6.30481 121.054 6.30481ZM180 12.6899C180 14.0863 179.062 15.2524 177.494 15.2524C175.938 15.2524 175.011 14.0754 175.011 12.6899C175.011 11.293 175.938 10.1274 177.494 10.1274C179.062 10.1274 180 11.293 180 12.6899ZM179.503 12.6899C179.503 11.5023 178.709 10.5999 177.494 10.5999C176.302 10.5999 175.507 11.4577 175.507 12.6899C175.507 13.8661 176.302 14.7787 177.494 14.7787C178.708 14.7787 179.503 13.8774 179.503 12.6899ZM176.511 11.5348H177.582C178.167 11.5348 178.554 11.8536 178.554 12.3484C178.554 12.6566 178.399 12.8874 178.167 13.0306L178.587 13.635V13.7562H177.98L177.571 13.173H177.097V13.7562H176.511V11.5348ZM177.571 12.0738H177.097V12.6566H177.571C177.792 12.6566 177.936 12.5577 177.936 12.3707C177.936 12.1728 177.803 12.0738 177.571 12.0738ZM15.9891 25.8565C17.2782 25.9484 18.3023 27.0017 18.3459 28.2995L18.3473 28.3861V38.347C18.3473 39.7509 17.2041 40.8883 15.8003 40.8883C14.4183 40.8883 13.2961 39.7969 13.2511 38.4325L13.2497 38.347V32.7753L8.39812 35.5636C7.18136 36.2687 5.62535 35.8513 4.91906 34.639C4.2307 33.4493 4.6146 31.9316 5.77335 31.2091L5.85035 31.1632L14.51 26.188C14.9579 25.9282 15.4738 25.8125 15.9891 25.8565ZM26.2339 26.1329L26.3341 26.188L34.9921 31.1635C35.2813 31.3293 35.535 31.5509 35.7385 31.8157C35.9421 32.0804 36.0916 32.3831 36.1783 32.7062C36.265 33.0293 36.2872 33.3665 36.2437 33.6982C36.2002 34.03 36.0918 34.3499 35.9248 34.6393C35.2368 35.8259 33.73 36.2511 32.5244 35.6074L32.446 35.564L27.5977 32.7753V38.3474C27.5977 39.7513 26.4579 40.8887 25.0471 40.8887C23.6654 40.8887 22.546 39.7972 22.501 38.4329L22.4996 38.3474V28.3861C22.4996 27.049 23.5368 25.9509 24.8576 25.8565C25.333 25.8156 25.8106 25.9115 26.2339 26.1329ZM3.74625 13.219L3.82464 13.2621L12.478 18.2404C13.0586 18.5705 13.485 19.1188 13.6638 19.7648C13.7208 19.9649 13.7468 20.1642 13.7566 20.3643C13.7642 20.6445 13.725 20.9241 13.6406 21.1913C13.4624 21.769 13.0837 22.263 12.5736 22.5836L12.478 22.6412L3.82464 27.6227C2.60296 28.3232 1.04589 27.9086 0.344526 26.6967C0.0129698 26.1267 -0.0832768 25.4488 0.0764183 24.8083C0.236113 24.1678 0.639039 23.6157 1.19882 23.2703L1.27617 23.2244L6.11156 20.4456L1.27582 17.6593C0.0544871 16.957 -0.363169 15.4068 0.344526 14.1934C1.03078 13.0041 2.53722 12.5796 3.74625 13.219ZM40.5025 14.1934C41.2087 15.4072 40.7911 16.957 39.5698 17.6593L34.7344 20.4456L39.5701 23.2244C40.7914 23.9277 41.2091 25.478 40.5028 26.6967C39.7983 27.9086 38.2394 28.3232 37.0223 27.6227L28.3627 22.6412C27.7854 22.3061 27.3843 21.7812 27.2064 21.1913C27.1219 20.9242 27.0833 20.6445 27.0921 20.3643C27.0968 20.1647 27.1268 19.9649 27.1821 19.7648C27.3617 19.1208 27.7856 18.5734 28.3627 18.2404L37.0227 13.2621C38.2394 12.5616 39.7983 12.9783 40.5032 14.1934M20.951 15.6945C21.098 15.6945 21.2998 15.7776 21.4028 15.8829L25.0014 19.4644C25.104 19.5665 25.1873 19.7698 25.1873 19.9161V20.9722C25.1873 21.1154 25.104 21.3182 25.0014 21.419L21.4021 25.0005C21.2991 25.1058 21.1004 25.192 20.9503 25.192H19.8921C19.7466 25.192 19.5444 25.1058 19.44 25.0005L15.8425 21.419C15.7398 21.3182 15.6561 21.115 15.6561 20.9722V19.9161C15.6561 19.7698 15.7398 19.5665 15.8425 19.4644L19.44 15.8829C19.5444 15.7776 19.7466 15.6945 19.8921 15.6945H20.951ZM20.4419 18.7511H20.4015C20.2563 18.7511 20.0542 18.836 19.9529 18.9378L18.9109 19.9712C18.8065 20.0783 18.7263 20.2802 18.7263 20.4247V20.4654C18.7263 20.6082 18.8065 20.8082 18.9109 20.9121L19.9529 21.9488C20.0556 22.0513 20.2563 22.1354 20.4015 22.1354H20.4419C20.5875 22.1354 20.79 22.0509 20.8923 21.9488L21.9347 20.9121C22.0373 20.8082 22.1252 20.6082 22.1252 20.4654V20.4247C22.1252 20.2798 22.0373 20.0783 21.9347 19.9712L20.8923 18.9378C20.7896 18.8356 20.5875 18.7511 20.4419 18.7511ZM25.0471 0C26.4287 0 27.5509 1.0918 27.5962 2.45222L27.5977 2.53776V8.11128L32.446 5.31975C33.6646 4.6178 35.222 5.03416 35.9248 6.24755C36.2547 6.81816 36.3499 7.49579 36.19 8.13594C36.03 8.77609 35.6277 9.32809 35.0687 9.67423L34.9921 9.72018L26.3338 14.7003C25.8862 14.9579 25.3716 15.0733 24.8576 15.0314C23.5656 14.9364 22.5446 13.8817 22.501 12.5852L22.4996 12.4983V2.53776C22.4996 1.13775 23.6366 0 25.0471 0ZM15.8003 0C17.1752 0 18.3006 1.0918 18.3459 2.45222L18.3473 2.53776V12.4979C18.3473 13.834 17.3067 14.9339 15.9894 15.0311C15.5131 15.0697 15.0356 14.9738 14.6106 14.7543L14.51 14.6996L5.85035 9.71983C5.56118 9.55449 5.30747 9.33318 5.10389 9.06866C4.90032 8.80415 4.75091 8.5017 4.66431 8.17878C4.57771 7.85587 4.55564 7.5189 4.59936 7.18735C4.64309 6.85581 4.75175 6.53627 4.91906 6.2472C5.61023 5.05961 7.11562 4.63547 8.31972 5.27592L8.39777 5.3194L13.2493 8.11093V2.5374C13.2497 1.1381 14.3891 0 15.8003 0Z" fill="white"/>
</g>
<defs>
<clipPath id="clip0_204_383">
<rect width="180" height="41" fill="white"/>
</clipPath>
</defs>
</svg>
